<svg width="286" height="188" viewBox="0 0 286 188" fill="none" xmlns="http://www.w3.org/2000/svg">
<path d="M152.261 92.8544C143.879 87.0815 143.061 86.3308 138.83 78.5685L134.801 86.6799C152.048 91.4731 166.925 107.549 179.903 119.733C193.193 132.214 217.749 150.587 221.352 167.902C226.127 155.977 233.528 157.512 242.115 147.907C213.499 140.104 173.119 107.253 152.261 92.8544Z" fill="#5C5C5C"/>
<path d="M192.295 180.266C194.354 174.692 201.457 172.076 206.94 174.512L206.822 171.986C207.08 170.115 207.714 168.313 208.688 166.687C209.662 165.061 210.955 163.643 212.492 162.517C214.029 161.391 215.779 160.58 217.638 160.13C219.497 159.681 221.429 159.602 223.32 159.9C223.647 155.73 228.057 152.34 232.234 153.05C231.883 151.564 231.972 150.01 232.492 148.573C233.011 147.136 233.939 145.876 235.164 144.945C236.389 144.014 237.859 143.45 239.4 143.321C240.941 143.192 242.488 143.503 243.854 144.218C246.033 142.865 248.58 142.203 251.152 142.319C253.724 142.435 256.198 143.325 258.243 144.868C260.287 146.411 261.805 148.535 262.591 150.953C263.378 153.372 263.395 155.97 262.642 158.398C269.217 163.357 271.591 173.037 268.045 180.405" fill="#858585"/>
<path d="M129.641 84.2889L141.185 76.5379C145.325 76.0011 147.535 80.0399 147.36 82.9451C148.244 82.4935 149.251 82.3303 150.235 82.479C151.219 82.6277 152.13 83.0806 152.836 83.7726C153.543 84.4645 154.008 85.3597 154.166 86.3294C154.324 87.2991 154.166 88.2931 153.714 89.1685C156.073 89.2848 158.04 91.6871 157.66 93.988C157.28 96.2889 154.616 97.9442 152.36 97.3061C150.861 96.8857 149.639 95.662 148.091 95.4894C146.637 95.328 145.279 96.1237 143.887 96.5591C140.428 97.6514 136.471 96.424 133.861 93.9317C131.251 91.4393 129.904 87.8622 129.641 84.2889Z" fill="#FFA900" fill-opacity="0.8"/>
<path d="M137.049 79.4244C138.396 79.794 139.656 80.4229 140.755 81.2749C140.911 81.397 141.025 81.5647 141.079 81.7541C141.133 81.9434 141.125 82.1448 141.056 82.3294C140.987 82.5141 140.861 82.6726 140.696 82.7825C140.531 82.8924 140.334 82.948 140.135 82.9414H140.112C141.515 83.906 142.852 84.9605 144.115 86.0981C144.292 86.257 144.416 86.4659 144.469 86.6963C144.522 86.9268 144.501 87.1677 144.411 87.3865C144.32 87.6053 144.164 87.7913 143.962 87.9194C143.761 88.0475 143.525 88.1114 143.285 88.1025C138.961 87.9247 134.849 86.2056 131.711 83.2642L137.049 79.4244Z" fill="#DFA70C"/>
<path d="M116.465 80.3777C116.465 80.3777 116.465 80.4228 116.465 80.4678C116.559 83.0632 117.243 85.6046 118.466 87.9045C119.689 90.2043 121.42 92.2038 123.531 93.7553L126.194 95.7296L126.468 87.7572L116.465 80.3777Z" fill="#071D94"/>
<path d="M127.807 65.3862L127.895 65.3599C130.409 64.7204 133.036 64.6453 135.583 65.1403C138.13 65.6353 140.532 66.6878 142.612 68.2201L145.256 70.1682L137.692 72.6605L127.807 65.3862Z" fill="#071D94"/>
<path d="M95.8812 53.5664C96.7791 52.3803 101.539 52.4854 108.27 54.2833C112.247 55.3368 116.028 57.0094 119.471 59.238L141.832 75.7009L137.434 81.5113L134.888 84.8895L130.49 90.6999L110.187 75.7572C108.201 74.3003 106.361 72.6588 104.693 70.8551C103.017 69.0515 101.491 67.1185 100.127 65.0747C96.3492 59.328 95.0061 54.7525 95.904 53.5664" fill="#FFBB00"/>
<path d="M126.963 87.8697C126.982 87.8697 129.535 84.5892 132.67 80.5091C135.805 76.429 138.309 73.1072 138.29 73.0884C138.271 73.0696 135.718 76.369 132.583 80.449C129.447 84.5291 126.94 87.851 126.963 87.8697Z" fill="#E0E0E0"/>
<path d="M127.689 88.3014C127.712 88.3014 130.261 85.0209 133.397 80.9408C136.532 76.8607 139.039 73.5389 139.016 73.5239C138.993 73.5088 136.444 76.8007 133.309 80.8845C130.174 84.9683 127.667 88.2864 127.689 88.3014Z" fill="#E0E0E0"/>
<path d="M128.397 88.8382C128.416 88.8382 130.969 85.5614 134.104 81.4813C137.24 77.4012 139.743 74.0756 139.724 74.0606C139.705 74.0456 137.152 77.3374 134.017 81.4212C130.882 85.5051 128.374 88.8232 128.397 88.8382Z" fill="#E0E0E0"/>
<path d="M129.101 89.3786C129.124 89.3786 131.677 86.0981 134.808 82.018C137.94 77.9379 140.447 74.6161 140.424 74.5973C140.401 74.5785 137.852 77.8779 134.717 81.9579C131.582 86.038 129.082 89.3599 129.101 89.3786Z" fill="#E0E0E0"/>
<path d="M129.809 89.9155C129.832 89.9155 132.381 86.6386 135.516 82.5586C138.651 78.4785 141.158 75.1529 141.136 75.1379C141.113 75.1229 138.564 78.4147 135.428 82.4985C132.293 86.5823 129.786 89.9004 129.809 89.9155Z" fill="#E0E0E0"/>
<path d="M122.135 72.9233L122.226 73.0171C122.291 73.0809 122.389 73.1522 122.519 73.2573C122.774 73.46 123.15 73.7491 123.618 74.0981C124.551 74.7963 125.856 75.7497 127.301 76.7931C128.747 77.8366 130.064 78.7713 131.019 79.4469L132.16 80.2389L132.472 80.4491L132.583 80.5204C132.583 80.5204 132.552 80.4866 132.484 80.4341L132.183 80.2088L131.068 79.3906L127.366 76.7143L123.656 74.0418L122.538 73.2273C122.408 73.1297 122.302 73.0584 122.237 73.0021C122.207 72.9716 122.172 72.9451 122.135 72.9233Z" fill="#E0E0E0"/>
<path d="M116.465 80.3778C116.488 80.3965 119.026 77.0822 122.134 72.9796C125.243 68.877 127.747 65.5364 127.724 65.5214C127.701 65.5063 125.163 68.8169 122.055 72.9195C118.946 77.0221 116.427 80.3627 116.465 80.3778Z" fill="#E0E0E0"/>
<path d="M128.603 79.5745C128.603 79.5745 128.549 79.5745 128.466 79.6158C128.35 79.6807 128.26 79.7827 128.211 79.9048C128.169 79.9964 128.154 80.0972 128.165 80.1968C128.176 80.2965 128.214 80.3913 128.275 80.4716C128.348 80.573 128.451 80.6499 128.569 80.6918C128.688 80.7337 128.816 80.7386 128.938 80.7058C129.059 80.673 129.167 80.6041 129.248 80.5084C129.328 80.4128 129.376 80.2951 129.386 80.1713C129.398 80.072 129.382 79.9716 129.34 79.8806C129.299 79.7895 129.233 79.711 129.151 79.6533C129.042 79.5697 128.908 79.526 128.77 79.5294C128.679 79.5294 128.629 79.5557 128.633 79.5632C128.637 79.5707 128.683 79.5632 128.77 79.5632C128.89 79.5793 129.003 79.6273 129.097 79.7021C129.165 79.7558 129.218 79.8258 129.25 79.9053C129.283 79.9848 129.294 80.0712 129.284 80.1563C129.27 80.2593 129.228 80.3565 129.16 80.4363C129.093 80.5162 129.004 80.5753 128.903 80.6067C128.8 80.6299 128.693 80.6239 128.593 80.5894C128.493 80.5548 128.406 80.4932 128.34 80.4115C128.286 80.344 128.251 80.2639 128.239 80.1789C128.226 80.094 128.236 80.0072 128.268 79.9273C128.308 79.814 128.382 79.7157 128.481 79.6458C128.553 79.5745 128.603 79.5745 128.603 79.5745Z" fill="#E0E0E0"/>
<path d="M124.216 76.4515C124.167 76.4533 124.12 76.4675 124.079 76.4928C123.965 76.5615 123.876 76.664 123.824 76.7856C123.783 76.877 123.768 76.9773 123.78 77.0763C123.792 77.1753 123.831 77.2693 123.892 77.3486C123.964 77.4507 124.066 77.5283 124.185 77.5706C124.303 77.6129 124.432 77.618 124.554 77.585C124.675 77.5521 124.783 77.4828 124.863 77.3867C124.943 77.2905 124.991 77.1723 125 77.0484C125.011 76.9495 124.995 76.8495 124.954 76.7585C124.914 76.6675 124.849 76.5888 124.767 76.5304C124.658 76.4495 124.524 76.4072 124.387 76.4103C124.339 76.4078 124.292 76.4182 124.25 76.4403C124.296 76.4434 124.341 76.4434 124.387 76.4403C124.508 76.4529 124.622 76.5013 124.714 76.5792C124.783 76.6313 124.836 76.7005 124.869 76.7796C124.902 76.8587 124.913 76.945 124.901 77.0296C124.892 77.1344 124.85 77.234 124.782 77.3149C124.714 77.3958 124.622 77.4541 124.519 77.4819C124.416 77.5097 124.307 77.5058 124.207 77.4705C124.106 77.4353 124.019 77.3705 123.957 77.2848C123.903 77.2174 123.868 77.1372 123.855 77.0522C123.843 76.9673 123.853 76.8805 123.885 76.8006C123.924 76.6883 123.997 76.5903 124.094 76.5191C124.17 76.4741 124.22 76.4591 124.216 76.4515Z" fill="#E0E0E0"/>
<path d="M144.963 90.3433C145.208 90.2596 145.477 90.274 145.711 90.3834C145.945 90.4929 146.126 90.6887 146.216 90.9286C146.305 91.1686 146.296 91.4336 146.189 91.6667C146.083 91.8998 145.887 92.0823 145.646 92.175C145.404 92.2676 145.136 92.2631 144.897 92.1623C144.659 92.0615 144.471 91.8725 144.372 91.636C144.274 91.3994 144.273 91.1342 144.371 90.8974C144.469 90.6606 144.657 90.4711 144.895 90.3696" fill="#E0E0E0"/>
<path d="M106.245 66.4747C106.586 67.4159 107.202 68.2363 108.015 68.8322C108.828 69.4281 109.802 69.7727 110.814 69.8225C111.825 69.8723 112.829 69.6251 113.698 69.112C114.568 68.5989 115.263 67.843 115.697 66.94C116.131 66.0369 116.283 65.0273 116.135 64.0387C115.987 63.0501 115.545 62.127 114.866 61.3862C114.186 60.6453 113.299 60.12 112.316 59.8765C111.334 59.6331 110.3 59.6826 109.346 60.0187C108.067 60.4693 107.022 61.4025 106.441 62.6132C105.859 63.8239 105.789 65.2129 106.245 66.4747Z" fill="#969696"/>
<path d="M106.246 66.4748C106.144 66.0744 106.068 65.6683 106.017 65.2586C105.924 64.1335 106.216 63.01 106.847 62.0681C107.276 61.4209 107.853 60.8822 108.532 60.4954C109.314 60.0534 110.2 59.8241 111.101 59.831C112.091 59.8419 113.057 60.1395 113.878 60.6868C114.762 61.2739 115.433 62.1248 115.792 63.1149C116.15 64.105 116.178 65.1825 115.872 66.1895C115.587 67.1263 115.03 67.9602 114.27 68.588C113.624 69.1187 112.854 69.4813 112.03 69.6426C111.206 69.8039 110.354 69.7588 109.552 69.5113C108.458 69.1784 107.51 68.4906 106.862 67.5595C106.637 67.2105 106.434 66.8483 106.253 66.4748C106.279 66.5803 106.315 66.6834 106.36 66.7825C106.401 66.9122 106.455 67.0378 106.52 67.1579C106.598 67.3193 106.688 67.4749 106.79 67.6233C107.33 68.4436 108.099 69.0925 109.004 69.492C109.909 69.8916 110.912 70.0247 111.892 69.8754C112.815 69.7303 113.682 69.3412 114.399 68.7494C114.793 68.4387 115.134 68.0688 115.411 67.6534C115.708 67.2259 115.934 66.7546 116.081 66.257C116.404 65.2062 116.376 64.0808 116.001 63.0468C115.626 62.0129 114.925 61.125 114 60.5142C113.143 59.9452 112.134 59.6396 111.101 59.6359C110.164 59.6319 109.244 59.8769 108.437 60.3453C107.583 60.8416 106.892 61.5706 106.447 62.4448C106.002 63.319 105.823 64.3012 105.93 65.2736C105.947 65.452 105.977 65.6289 106.021 65.8029C106.045 65.931 106.08 66.0567 106.128 66.1782C106.158 66.2804 106.197 66.3797 106.246 66.4748Z" fill="#696969"/>
<path d="M95.8811 53.5664C96.779 52.3803 101.539 52.4854 108.27 54.2833L100.104 65.0747C96.3263 59.328 94.9832 54.7525 95.8811 53.5664Z" fill="#071D94"/>
<path d="M95.8813 53.5664C95.8813 53.5664 95.8356 53.6377 95.7481 53.7916C95.6558 54.0318 95.6044 54.2855 95.5959 54.5423C95.6168 55.5368 95.8045 56.521 96.1515 57.455C96.9695 59.9098 98.6702 63.318 101.455 67.1128C102.998 69.1791 104.715 71.1128 106.588 72.8932C107.645 73.8808 108.757 74.8106 109.917 75.6783L113.635 78.4221L130.399 90.7787L130.486 90.8425L130.551 90.7562L136.224 83.2492C138.164 80.678 140.074 78.1556 141.893 75.7421L141.958 75.6558L141.87 75.5882L125.091 63.2542L121.374 60.5404L119.597 59.2342C118.996 58.8138 118.383 58.4535 117.774 58.1081C115.517 56.833 113.142 55.7722 110.682 54.9402C108.66 54.2832 106.597 53.7542 104.507 53.3562C102.941 53.042 101.354 52.845 99.7584 52.7669C98.7525 52.6949 97.7413 52.7836 96.764 53.0296C96.6209 53.0781 96.4811 53.1358 96.3455 53.2023C96.25 53.2546 96.1585 53.3135 96.0715 53.3787C95.946 53.5026 95.8889 53.5701 95.8889 53.5701L96.083 53.3937C96.1724 53.3337 96.2651 53.2785 96.3607 53.2286C96.4971 53.1671 96.6368 53.1132 96.7792 53.0672C97.7533 52.8409 98.7572 52.7661 99.7546 52.8457C101.344 52.9375 102.925 53.1445 104.484 53.465C106.565 53.8758 108.619 54.4136 110.633 55.0753C113.08 55.9131 115.442 56.9776 117.687 58.2545C118.292 58.5998 118.904 58.9677 119.49 59.3806L121.263 60.6905L124.984 63.4344L141.748 75.7909L141.725 75.637L136.053 83.1441L130.383 90.6511L130.536 90.6286L113.764 78.272L110.043 75.5357C108.883 74.6766 107.773 73.7543 106.717 72.7731C104.847 71.005 103.131 69.0838 101.589 67.0302C98.7958 63.2767 97.0798 59.8723 96.239 57.4325C95.8893 56.5072 95.6915 55.5328 95.653 54.546C95.6559 54.2907 95.6996 54.0373 95.7824 53.7953C95.8813 53.649 95.8813 53.5664 95.8813 53.5664Z" fill="#E0E0E0"/>
<path d="M111.481 68.5317C111.493 68.1904 111.463 67.8489 111.393 67.5144C111.306 66.8914 111.15 66.0393 110.963 65.1009L110.465 62.6987C110.418 62.3615 110.338 62.0296 110.225 61.7078C110.211 62.0491 110.241 62.3908 110.313 62.725C110.4 63.3481 110.556 64.2039 110.743 65.1422C110.929 66.0806 111.097 66.8463 111.237 67.5407C111.287 67.8779 111.368 68.2097 111.481 68.5317Z" fill="#E0E0E0"/>
<path d="M112.394 67.3456C112.383 66.6009 112.297 65.8592 112.139 65.131C112.054 64.3903 111.895 63.6598 111.664 62.9502C111.674 63.6949 111.759 64.4367 111.918 65.1648C112.005 65.9052 112.164 66.6356 112.394 67.3456Z" fill="#E0E0E0"/>
<path d="M237.42 133.925L226.603 128.746C226.247 128.57 225.974 128.264 225.844 127.893C225.714 127.522 225.736 127.115 225.907 126.76L233.193 112.001C233.371 111.65 233.681 111.381 234.057 111.252C234.433 111.124 234.846 111.146 235.206 111.314L242.054 114.61L244.699 122.556L239.425 133.25C239.246 133.597 238.936 133.862 238.561 133.988C238.187 134.114 237.778 134.092 237.42 133.925Z" fill="#FFBB00"/>
<path d="M242.062 114.599L240.011 118.754C239.931 118.916 239.884 119.093 239.872 119.274C239.861 119.454 239.886 119.635 239.946 119.807C240.005 119.978 240.099 120.136 240.22 120.271C240.342 120.407 240.489 120.517 240.654 120.597L244.706 122.545L242.062 114.599Z" fill="#E0E0E0"/>
<path d="M239.189 118.146C239.163 118.202 238.021 117.706 236.64 117.042C235.789 116.672 234.969 116.238 234.186 115.743C235.063 116.047 235.916 116.417 236.735 116.851C237.586 117.218 238.407 117.651 239.189 118.146Z" fill="white"/>
<path d="M241.259 122.046C241.233 122.102 239.357 121.257 237.097 120.169C234.837 119.08 233.003 118.149 233.026 118.097C233.048 118.044 234.928 118.885 237.192 119.974C239.456 121.062 241.286 121.989 241.259 122.046Z" fill="white"/>
<path d="M241.031 124.365C241.004 124.418 238.976 123.498 236.499 122.304C234.022 121.111 232.032 120.109 232.059 120.052C232.086 119.996 234.114 120.919 236.594 122.109C239.075 123.299 241.057 124.313 241.031 124.365Z" fill="white"/>
<path d="M240.118 126.216C240.091 126.268 238.063 125.349 235.586 124.155C233.109 122.961 231.119 121.959 231.146 121.903C231.173 121.847 233.201 122.77 235.681 123.96C238.162 125.15 240.144 126.163 240.118 126.216Z" fill="white"/>
<path d="M239.205 128.066C239.178 128.119 237.15 127.199 234.669 126.005C232.189 124.812 230.206 123.81 230.233 123.753C230.26 123.697 232.288 124.62 234.768 125.81C237.249 127 239.231 128.014 239.205 128.066Z" fill="white"/>
<path d="M238.292 129.917C238.265 129.969 236.233 129.05 233.756 127.856C231.279 126.662 229.293 125.66 229.32 125.604C229.346 125.548 231.374 126.471 233.851 127.661C236.328 128.851 238.318 129.872 238.292 129.917Z" fill="white"/>
<path d="M89.0059 80.8694C88.8302 83.4191 87.8917 85.8601 86.3092 87.8834C84.7267 89.9067 82.5714 91.4215 80.1159 92.2359C77.6605 93.0503 75.0153 93.1278 72.5152 92.4585C70.0151 91.7893 67.7724 90.4035 66.071 88.4764C64.3696 86.5492 63.286 84.1675 62.9572 81.6326C62.6284 79.0977 63.0693 76.5235 64.2241 74.2359C65.3789 71.9483 67.1956 70.05 69.4444 68.7814C71.6932 67.5127 74.2729 66.9308 76.8571 67.1091C80.3177 67.3448 83.5416 68.927 85.8199 71.5074C88.0982 74.0879 89.2442 77.4555 89.0059 80.8694Z" fill="#071D94"/>
<path d="M85.8973 80.6555C85.763 82.5983 85.0476 84.458 83.8415 85.9995C82.6355 87.5409 80.993 88.6948 79.122 89.315C77.2509 89.9353 75.2354 89.994 73.3305 89.4839C71.4256 88.9737 69.717 87.9176 68.4207 86.4491C67.1245 84.9806 66.2989 83.1657 66.0486 81.2342C65.7982 79.3027 66.1343 77.3413 67.0143 75.5983C67.8943 73.8553 69.2786 72.409 70.9921 71.4424C72.7056 70.4758 74.6712 70.0324 76.6402 70.1682C77.9462 70.2568 79.2217 70.5984 80.3938 71.1735C81.5659 71.7486 82.6117 72.5459 83.4713 73.5198C84.331 74.4937 84.9877 75.6251 85.404 76.8495C85.8203 78.0739 85.9879 79.3672 85.8973 80.6555Z" fill="#3042A2"/>
<path d="M83.7406 74.2998C83.6951 74.2998 83.6866 74.14 83.6069 73.8629C83.4969 73.4731 83.2608 73.094 82.9069 72.7392C82.3828 72.217 81.6015 71.7639 80.6306 71.419C80.3532 71.3182 80.0613 71.2269 79.7571 71.1459C79.4399 71.0637 79.1109 70.9925 78.7725 70.9329C78.4211 70.8722 78.0606 70.8243 77.6941 70.7896C77.3187 70.7539 76.9383 70.732 76.556 70.724C76.176 70.7185 75.7956 70.7258 75.4178 70.7459C75.0466 70.7673 74.6794 70.8025 74.3195 70.851C73.9716 70.8966 73.6319 70.9555 73.3037 71.0271C72.9867 71.0936 72.6812 71.1722 72.3903 71.262C71.8469 71.4255 71.3504 71.6224 70.9135 71.8477C70.5315 72.0449 70.1965 72.262 69.9148 72.4948C69.5075 72.8352 69.2119 73.2036 69.0384 73.5871C68.916 73.8602 68.8819 74.0185 68.8364 74.0172C68.7908 74.0158 68.7624 73.8574 68.8193 73.5707C68.9134 73.162 69.1653 72.7652 69.5619 72.4006C69.8351 72.1471 70.1704 71.9101 70.5607 71.6948C71.0121 71.4464 71.5319 71.2287 72.1057 71.0476C72.4151 70.9492 72.7395 70.862 73.076 70.7868C73.4278 70.7078 73.7922 70.6425 74.1658 70.5916C74.5533 70.5375 74.9491 70.4983 75.3495 70.4742C75.7611 70.4509 76.1759 70.4426 76.5901 70.4496C77.005 70.4579 77.4178 70.4816 77.825 70.5206C78.2192 70.5591 78.6064 70.6126 78.9831 70.6803C80.3418 70.9256 81.5264 71.3519 82.3976 71.9091C82.7522 72.1387 83.0493 72.3875 83.2825 72.6505C83.6192 73.0288 83.8064 73.4339 83.8345 73.8451C83.8402 74.1428 83.7748 74.2998 83.7406 74.2998Z" fill="white"/>
<path d="M76.6517 85.8992L76.5566 87.6108L75.008 87.5282L75.1032 85.8616C73.5812 85.6852 72.1278 85.1297 71.2983 84.4278L72.2533 82.6073C73.1077 83.2702 74.1229 83.7011 75.1983 83.8572L75.3429 81.3049C73.6459 80.7981 71.7549 80.13 71.8805 77.9267C71.9718 76.3089 73.2426 74.9802 75.6853 74.8413L75.7842 73.1447L77.3328 73.2273L77.2377 74.8939C78.3445 75.0227 79.4046 75.4086 80.331 76.0199L79.4521 77.8554C78.7447 77.4 77.9535 77.0863 77.1235 76.932L76.9789 79.5294C78.6759 80.0212 80.5326 80.693 80.4033 82.8475C80.3576 84.4315 79.102 85.7453 76.6517 85.8992ZM75.4836 79.0603L75.6054 76.8907C74.7759 77.0259 74.4259 77.4538 74.3955 77.9567C74.365 78.4597 74.814 78.8238 75.4836 79.0603ZM77.9415 82.8888C77.972 82.3558 77.5382 82.0405 76.8876 81.7628L76.7659 83.8723C77.5496 83.7559 77.9149 83.3768 77.9415 82.8888Z" fill="#071D94"/>
<path d="M258.689 41.8705C258.556 43.8188 257.839 45.6842 256.63 47.2305C255.421 48.7769 253.775 49.9347 251.899 50.5573C250.023 51.18 248.001 51.2395 246.091 50.7284C244.18 50.2172 242.467 49.1584 241.167 47.686C239.866 46.2135 239.038 44.3936 238.787 42.4566C238.536 40.5197 238.873 38.5527 239.756 36.8048C240.638 35.0569 242.026 33.6065 243.745 32.6374C245.463 31.6683 247.435 31.224 249.409 31.3606C252.052 31.5406 254.515 32.7489 256.255 34.7198C257.996 36.6907 258.871 39.2628 258.689 41.8705Z" fill="#071D94"/>
<path d="M256.315 41.7053C256.211 43.1861 255.664 44.6031 254.743 45.7773C253.823 46.9515 252.57 47.8302 251.144 48.3022C249.717 48.7742 248.181 48.8185 246.729 48.4293C245.277 48.0402 243.974 47.2351 242.986 46.1159C241.998 44.9967 241.368 43.6135 241.176 42.1412C240.984 40.669 241.239 39.1737 241.909 37.8444C242.578 36.5151 243.632 35.4114 244.938 34.6729C246.243 33.9344 247.741 33.5942 249.242 33.6953C250.24 33.7625 251.214 34.023 252.11 34.462C253.005 34.9011 253.805 35.51 254.461 36.2539C255.118 36.9978 255.62 37.8622 255.938 38.7976C256.256 39.733 256.384 40.721 256.315 41.7053Z" fill="#243CBF"/>
<path d="M256.33 41.4726C256.254 41.1712 256.208 40.8632 256.193 40.553C256.081 39.7357 255.841 38.9405 255.482 38.1958C255.231 37.6864 254.925 37.2056 254.569 36.7619C254.16 36.256 253.687 35.8044 253.161 35.4182C252.875 35.2097 252.573 35.0227 252.259 34.8589C251.936 34.6824 251.598 34.5318 251.251 34.4085C250.892 34.2807 250.525 34.1791 250.151 34.1044C249.765 34.0324 249.375 33.9873 248.983 33.9693C248.59 33.9571 248.197 33.9735 247.807 34.0181C247.422 34.0603 247.04 34.1331 246.666 34.2358C246.312 34.3354 245.966 34.4608 245.631 34.6112C245.306 34.7522 244.994 34.9178 244.695 35.1066C243.653 35.7554 242.786 36.6442 242.169 37.6965C241.751 38.4121 241.448 39.1869 241.271 39.9937C241.234 40.3014 241.165 40.6045 241.065 40.8983C240.998 40.589 240.998 40.2692 241.065 39.9599C241.163 39.1011 241.421 38.2675 241.826 37.5014C242.106 36.963 242.45 36.459 242.85 36C243.311 35.48 243.841 35.0231 244.425 34.6412C244.744 34.4356 245.077 34.2525 245.422 34.0932C245.787 33.9307 246.165 33.7976 246.552 33.6953C246.948 33.5811 247.352 33.4982 247.762 33.4476C248.182 33.3979 248.606 33.3804 249.029 33.395C249.452 33.4143 249.873 33.4645 250.288 33.5452C250.692 33.6258 251.089 33.7388 251.475 33.883C251.847 34.0191 252.207 34.1848 252.552 34.3784C252.884 34.5598 253.201 34.7669 253.499 34.9978C254.053 35.4218 254.546 35.9181 254.964 36.4729C255.328 36.9535 255.632 37.4752 255.87 38.0269C256.212 38.8213 256.403 39.6713 256.433 40.5342C256.466 40.8506 256.431 41.1705 256.33 41.4726Z" fill="#E0E0E0"/>
<path d="M249.253 45.7141L249.181 47.024L247.997 46.9565L248.066 45.684C247.017 45.5952 246.014 45.2152 245.174 44.588L245.905 43.1992C246.558 43.7045 247.333 44.0342 248.153 44.1564L248.264 42.2045C246.966 41.8292 245.524 41.3037 245.6 39.6334C245.669 38.3947 246.639 37.3813 248.523 37.2762L248.595 35.9812L249.778 36.045L249.706 37.3175C250.55 37.409 251.361 37.6986 252.069 38.162L251.399 39.5658C250.86 39.2164 250.256 38.9765 249.622 38.8601L249.508 40.8458C250.805 41.2211 252.225 41.7316 252.133 43.3794C252.084 44.5918 251.117 45.594 249.253 45.7141ZM248.359 40.4892L248.454 38.8301C247.819 38.9352 247.552 39.2618 247.529 39.6446C247.507 40.0275 247.849 40.2977 248.359 40.4892ZM250.239 43.4132C250.261 43.004 249.93 42.7638 249.432 42.5611L249.341 44.1714C249.938 44.0775 250.216 43.7885 250.239 43.4132Z" fill="#071D94"/>
<path d="M144.419 113.975C144.63 115.371 144.416 116.798 143.805 118.074C143.194 119.35 142.212 120.418 140.985 121.144C139.758 121.869 138.34 122.219 136.911 122.149C135.482 122.08 134.107 121.593 132.958 120.752C131.81 119.91 130.94 118.751 130.46 117.422C129.979 116.092 129.909 114.652 130.259 113.284C130.609 111.915 131.362 110.68 132.424 109.734C133.486 108.788 134.808 108.174 136.224 107.97C138.117 107.697 140.043 108.176 141.58 109.301C143.116 110.427 144.137 112.108 144.419 113.975Z" fill="#071D94"/>
<path d="M142.715 114.219C142.874 115.284 142.71 116.372 142.243 117.345C141.775 118.317 141.026 119.131 140.09 119.684C139.153 120.236 138.071 120.502 136.982 120.447C135.892 120.393 134.843 120.02 133.968 119.378C133.093 118.735 132.431 117.85 132.066 116.836C131.7 115.821 131.648 114.723 131.916 113.679C132.184 112.636 132.76 111.695 133.571 110.974C134.382 110.254 135.391 109.787 136.471 109.633C137.915 109.424 139.385 109.791 140.555 110.651C141.726 111.511 142.503 112.794 142.715 114.219Z" fill="#394DBD"/>
<path d="M142.68 114.051C142.577 113.852 142.497 113.643 142.441 113.427C142.233 112.865 141.937 112.339 141.565 111.866C141.021 111.17 140.31 110.618 139.496 110.259C139.263 110.154 139.023 110.066 138.777 109.997C138.527 109.923 138.273 109.868 138.016 109.832C137.46 109.761 136.897 109.772 136.345 109.865C136.067 109.917 135.792 109.987 135.523 110.076C135.262 110.166 135.008 110.275 134.762 110.402C134.528 110.525 134.303 110.664 134.089 110.819C133.883 110.969 133.689 111.133 133.507 111.31C133.168 111.638 132.874 112.008 132.632 112.41C132.42 112.766 132.249 113.143 132.122 113.536C131.94 114.106 131.848 114.7 131.848 115.297C131.869 115.519 131.869 115.743 131.848 115.965C131.747 115.759 131.692 115.533 131.688 115.304C131.621 114.683 131.673 114.056 131.84 113.454C131.956 113.035 132.121 112.63 132.331 112.249C132.576 111.811 132.879 111.409 133.233 111.051C133.424 110.857 133.63 110.678 133.849 110.515C134.077 110.341 134.319 110.187 134.572 110.053C134.834 109.914 135.106 109.795 135.386 109.696C135.967 109.497 136.576 109.391 137.19 109.381C137.488 109.378 137.785 109.399 138.08 109.441C138.364 109.481 138.644 109.542 138.917 109.625C139.178 109.706 139.432 109.805 139.678 109.922C140.136 110.136 140.563 110.412 140.945 110.74C141.278 111.025 141.574 111.349 141.828 111.705C142.194 112.213 142.462 112.785 142.616 113.39C142.682 113.604 142.704 113.828 142.68 114.051Z" fill="#E0E0E0"/>
<path d="M138.351 118.123L138.503 119.058L137.658 119.193L137.51 118.284C136.753 118.378 135.985 118.261 135.292 117.947L135.592 116.854C136.132 117.113 136.732 117.228 137.331 117.188L137.106 115.792C136.129 115.717 135.029 115.574 134.824 114.381C134.679 113.495 135.204 112.632 136.52 112.271L136.372 111.344L137.217 111.209L137.365 112.121C137.976 112.057 138.593 112.138 139.165 112.358L138.91 113.45C138.474 113.286 138.01 113.209 137.544 113.221L137.776 114.644C138.75 114.711 139.834 114.858 140.025 116.032C140.177 116.903 139.656 117.755 138.351 118.123ZM136.905 114.565L136.715 113.382C136.281 113.551 136.144 113.822 136.186 114.099C136.228 114.377 136.513 114.508 136.905 114.565ZM138.689 116.348C138.64 116.055 138.37 115.939 137.985 115.867L138.172 117.023C138.583 116.862 138.731 116.618 138.689 116.359V116.348Z" fill="#071D94"/>
<path d="M38.946 135.446V149.87C38.946 149.97 38.9861 150.065 39.0575 150.136C39.1288 150.206 39.2256 150.246 39.3265 150.246H45.7947C45.8956 150.246 45.9924 150.206 46.0637 150.136C46.1351 150.065 46.1752 149.97 46.1752 149.87V145.4C46.1752 145.3 46.1351 145.205 46.0637 145.134C45.9924 145.064 45.8956 145.025 45.7947 145.025H44.5619C44.461 145.025 44.3643 144.985 44.2929 144.915C44.2216 144.844 44.1815 144.749 44.1815 144.649V144.386C44.1815 144.287 44.2216 144.191 44.2929 144.121C44.3643 144.051 44.461 144.011 44.5619 144.011L45.7795 144.034C45.8804 144.034 45.9772 143.994 46.0485 143.924C46.1199 143.853 46.16 143.758 46.16 143.658V142.731C46.16 142.632 46.2001 142.536 46.2714 142.466C46.3428 142.395 46.4395 142.356 46.5404 142.356H46.6584C46.7103 142.356 46.7618 142.345 46.8095 142.325C46.8572 142.305 46.9002 142.275 46.9358 142.238C46.9715 142.201 46.999 142.157 47.0167 142.108C47.0345 142.06 47.042 142.009 47.0389 141.958V141.842C47.0389 141.742 46.9988 141.647 46.9274 141.576C46.8561 141.506 46.7593 141.466 46.6584 141.466H46.3578C46.2569 141.466 46.1601 141.427 46.0888 141.356C46.0174 141.286 45.9773 141.19 45.9773 141.091V135.423C45.9773 135.323 45.9372 135.228 45.8659 135.158C45.7945 135.087 45.6978 135.048 45.5969 135.048L39.3151 135.07C39.2162 135.073 39.1223 135.114 39.0534 135.184C38.9845 135.254 38.946 135.348 38.946 135.446Z" fill="#E0E0E0"/>
<path d="M41.0044 150.343V164.779C41.0044 164.879 41.0445 164.974 41.1158 165.045C41.1872 165.115 41.284 165.155 41.3849 165.155H47.8531C47.954 165.155 48.0507 165.115 48.1221 165.045C48.1935 164.974 48.2335 164.879 48.2335 164.779V160.298C48.2335 160.198 48.1935 160.103 48.1221 160.032C48.0507 159.962 47.954 159.922 47.8531 159.922H46.6241C46.5232 159.922 46.4264 159.883 46.3551 159.812C46.2837 159.742 46.2436 159.646 46.2436 159.547V159.284C46.2435 159.233 46.2541 159.182 46.2746 159.135C46.2951 159.088 46.3252 159.046 46.363 159.01C46.4008 158.975 46.4455 158.948 46.4943 158.931C46.5431 158.913 46.5951 158.906 46.6469 158.909L47.8607 158.931C47.9125 158.934 47.9645 158.927 48.0133 158.909C48.0621 158.892 48.1068 158.865 48.1446 158.83C48.1824 158.794 48.2125 158.752 48.233 158.705C48.2535 158.658 48.2641 158.607 48.264 158.556V157.573C48.264 157.473 48.3041 157.377 48.3754 157.307C48.4468 157.237 48.5435 157.197 48.6445 157.197H48.7624C48.8144 157.197 48.8658 157.187 48.9135 157.167C48.9612 157.146 49.0042 157.117 49.0399 157.079C49.0755 157.042 49.103 156.998 49.1208 156.95C49.1385 156.902 49.146 156.85 49.1429 156.799V156.687C49.1429 156.587 49.1028 156.492 49.0315 156.421C48.9601 156.351 48.8633 156.311 48.7624 156.311H48.458C48.3571 156.311 48.2603 156.272 48.189 156.201C48.1176 156.131 48.0775 156.036 48.0775 155.936V150.321C48.0775 150.221 48.0375 150.126 47.9661 150.055C47.8947 149.985 47.798 149.945 47.6971 149.945L41.4115 149.968C41.3594 149.964 41.307 149.971 41.2577 149.989C41.2084 150.006 41.1633 150.033 41.1251 150.068C41.0869 150.103 41.0564 150.146 41.0357 150.193C41.0149 150.241 41.0043 150.292 41.0044 150.343Z" fill="#E0E0E0"/>
<path d="M38.615 165.042V179.467C38.615 179.566 38.6551 179.662 38.7264 179.732C38.7978 179.803 38.8946 179.842 38.9955 179.842H45.4637C45.5646 179.842 45.6613 179.803 45.7327 179.732C45.804 179.662 45.8441 179.566 45.8441 179.467V174.996C45.8441 174.897 45.804 174.801 45.7327 174.731C45.6613 174.66 45.5646 174.621 45.4637 174.621H44.2347C44.1338 174.621 44.037 174.581 43.9657 174.511C43.8943 174.441 43.8542 174.345 43.8542 174.246V173.987C43.8541 173.935 43.8647 173.885 43.8852 173.838C43.9057 173.79 43.9358 173.748 43.9736 173.713C44.0114 173.678 44.0561 173.651 44.1049 173.633C44.1537 173.616 44.2057 173.608 44.2575 173.611L45.4713 173.634C45.5231 173.637 45.5751 173.629 45.6239 173.612C45.6727 173.594 45.7174 173.567 45.7552 173.532C45.793 173.497 45.8231 173.455 45.8436 173.407C45.8641 173.36 45.8747 173.31 45.8746 173.258V172.286C45.8746 172.187 45.9147 172.091 45.986 172.021C46.0574 171.95 46.1541 171.911 46.2551 171.911H46.3692C46.4211 171.911 46.4726 171.901 46.5203 171.88C46.568 171.86 46.611 171.83 46.6466 171.793C46.6823 171.756 46.7098 171.712 46.7275 171.664C46.7453 171.615 46.7528 171.564 46.7497 171.513V171.397C46.7497 171.297 46.7096 171.202 46.6382 171.131C46.5669 171.061 46.4701 171.021 46.3692 171.021H46.0648C45.9639 171.021 45.8671 170.982 45.7958 170.911C45.7244 170.841 45.6843 170.746 45.6843 170.646V165.019C45.6843 164.92 45.6442 164.824 45.5729 164.754C45.5015 164.684 45.4048 164.644 45.3038 164.644L39.0183 164.667C38.9665 164.664 38.9145 164.671 38.8657 164.688C38.8168 164.706 38.7722 164.733 38.7344 164.768C38.6966 164.803 38.6665 164.846 38.646 164.893C38.6254 164.94 38.6149 164.991 38.615 165.042Z" fill="#E0E0E0"/>
<path d="M41.3772 91.0865V105.511C41.3772 105.611 41.4173 105.706 41.4886 105.777C41.56 105.847 41.6568 105.887 41.7577 105.887H48.2259C48.3268 105.887 48.4235 105.847 48.4949 105.777C48.5663 105.706 48.6063 105.611 48.6063 105.511V101.041C48.6063 100.941 48.5663 100.846 48.4949 100.775C48.4235 100.705 48.3268 100.665 48.2259 100.665H46.9969C46.896 100.665 46.7992 100.626 46.7279 100.556C46.6565 100.485 46.6164 100.39 46.6164 100.29V100.027C46.6163 99.9762 46.6269 99.9254 46.6474 99.8784C46.6679 99.8313 46.698 99.7889 46.7358 99.7537C46.7736 99.7185 46.8183 99.6914 46.8671 99.6739C46.9159 99.6564 46.9679 99.649 47.0197 99.652L48.2335 99.6746C48.2853 99.6776 48.3373 99.6702 48.3861 99.6527C48.4349 99.6353 48.4796 99.6081 48.5174 99.5729C48.5552 99.5378 48.5853 99.4953 48.6058 99.4483C48.6263 99.4012 48.6369 99.3505 48.6368 99.2992V98.3721C48.6368 98.2725 48.6769 98.1771 48.7482 98.1067C48.8196 98.0363 48.9164 97.9967 49.0173 97.9967H49.1314C49.1834 97.9968 49.2348 97.9864 49.2825 97.9662C49.3302 97.9459 49.3732 97.9163 49.4088 97.879C49.4445 97.8417 49.472 97.7976 49.4898 97.7494C49.5075 97.7013 49.515 97.65 49.5119 97.5989V97.4825C49.5119 97.383 49.4718 97.2875 49.4004 97.2171C49.3291 97.1467 49.2323 97.1072 49.1314 97.1072H48.8308C48.7299 97.1072 48.6331 97.0676 48.5618 96.9972C48.4904 96.9268 48.4503 96.8314 48.4503 96.7318V91.064C48.4503 90.9645 48.4103 90.869 48.3389 90.7986C48.2675 90.7282 48.1708 90.6887 48.0699 90.6887L41.7881 90.7112C41.7357 90.707 41.6829 90.7137 41.6332 90.7306C41.5834 90.7476 41.5378 90.7746 41.4992 90.8099C41.4606 90.8452 41.4298 90.888 41.4088 90.9356C41.3878 90.9832 41.377 91.0346 41.3772 91.0865Z" fill="#E0E0E0"/>
<path d="M43.4319 105.984V120.409C43.4319 120.509 43.472 120.604 43.5433 120.674C43.6147 120.745 43.7115 120.784 43.8124 120.784H50.2805C50.3815 120.784 50.4782 120.745 50.5496 120.674C50.6209 120.604 50.661 120.509 50.661 120.409V115.939C50.661 115.839 50.6209 115.744 50.5496 115.673C50.4782 115.603 50.3815 115.563 50.2805 115.563H49.0478C48.9469 115.563 48.8501 115.524 48.7787 115.453C48.7074 115.383 48.6673 115.287 48.6673 115.188V114.925C48.6672 114.874 48.6777 114.824 48.698 114.777C48.7183 114.73 48.748 114.688 48.7854 114.653C48.8228 114.618 48.867 114.59 48.9154 114.573C48.9637 114.555 49.0153 114.547 49.0668 114.55L50.2844 114.572C50.3359 114.575 50.3874 114.567 50.4358 114.549C50.4842 114.532 50.5284 114.504 50.5658 114.469C50.6031 114.434 50.6329 114.392 50.6532 114.345C50.6735 114.298 50.6839 114.248 50.6839 114.197V113.27C50.6839 113.17 50.7239 113.075 50.7953 113.004C50.8667 112.934 50.9634 112.894 51.0643 112.894H51.1823C51.2342 112.895 51.2856 112.884 51.3334 112.864C51.3811 112.844 51.4241 112.814 51.4597 112.777C51.4954 112.739 51.5229 112.695 51.5406 112.647C51.5584 112.599 51.5659 112.548 51.5628 112.497V112.384C51.5628 112.284 51.5227 112.189 51.4513 112.119C51.38 112.048 51.2832 112.009 51.1823 112.009H50.8817C50.7808 112.009 50.684 111.969 50.6127 111.899C50.5413 111.828 50.5012 111.733 50.5012 111.633V105.962C50.5012 105.862 50.4611 105.767 50.3898 105.696C50.3184 105.626 50.2217 105.586 50.1207 105.586L43.839 105.609C43.7868 105.605 43.7345 105.612 43.6852 105.63C43.6359 105.647 43.5908 105.674 43.5526 105.709C43.5144 105.744 43.4839 105.787 43.4632 105.834C43.4424 105.882 43.4318 105.933 43.4319 105.984Z" fill="#E0E0E0"/>
<path d="M41.0425 120.683V135.126C41.0425 135.226 41.0826 135.322 41.1539 135.392C41.2253 135.462 41.3221 135.502 41.423 135.502H47.8911C47.9921 135.502 48.0888 135.462 48.1602 135.392C48.2315 135.322 48.2716 135.226 48.2716 135.126V130.622C48.2716 130.523 48.2315 130.427 48.1602 130.357C48.0888 130.286 47.9921 130.247 47.8911 130.247H46.6622C46.5613 130.247 46.4645 130.207 46.3931 130.137C46.3218 130.067 46.2817 129.971 46.2817 129.872V129.613C46.2816 129.561 46.2922 129.511 46.3127 129.464C46.3332 129.416 46.3633 129.374 46.4011 129.339C46.4389 129.304 46.4836 129.277 46.5324 129.259C46.5812 129.242 46.6332 129.234 46.685 129.237L47.9026 129.26C47.9541 129.262 48.0056 129.254 48.054 129.237C48.1024 129.219 48.1466 129.192 48.184 129.157C48.2214 129.122 48.2511 129.079 48.2714 129.033C48.2917 128.986 48.3021 128.935 48.3021 128.884V127.957C48.3021 127.858 48.3421 127.762 48.4135 127.692C48.4849 127.621 48.5816 127.582 48.6825 127.582H48.8005C48.8524 127.582 48.9039 127.572 48.9516 127.551C48.9993 127.531 49.0423 127.501 49.0779 127.464C49.1136 127.427 49.1411 127.383 49.1588 127.335C49.1766 127.286 49.1841 127.235 49.181 127.184V127.068C49.181 126.968 49.1409 126.873 49.0695 126.802C48.9982 126.732 48.9014 126.692 48.8005 126.692H48.4961C48.3952 126.692 48.2984 126.653 48.2271 126.582C48.1557 126.512 48.1156 126.417 48.1156 126.317V120.66C48.1156 120.561 48.0755 120.465 48.0042 120.395C47.9328 120.325 47.8361 120.285 47.7351 120.285L41.4496 120.308C41.3974 120.304 41.3451 120.311 41.2958 120.328C41.2465 120.346 41.2014 120.373 41.1632 120.408C41.125 120.443 41.0945 120.486 41.0738 120.533C41.053 120.58 41.0424 120.631 41.0425 120.683Z" fill="#E0E0E0"/>
<path d="M151.778 23.3544H145.222V43.552H151.778V23.3544Z" fill="#FFBB00"/>
<path d="M161.564 27.9674H155.008V43.552H161.564V27.9674Z" fill="#FFCD45"/>
<path d="M170.627 34.2996H164.071V43.552H170.627V34.2996Z" fill="#FFD583"/>
<path d="M270.663 180.24C270.663 180.296 213.347 180.338 142.658 180.338C71.9681 180.338 14.6372 180.296 14.6372 180.24C14.6372 180.184 71.9415 180.142 142.658 180.142C213.374 180.142 270.663 180.187 270.663 180.24Z" fill="#263238"/>
<path d="M227.585 85.4825C227.554 82.7389 228.347 80.0476 229.865 77.7484C231.383 75.4491 233.557 73.6448 236.113 72.5632C238.669 71.4817 241.493 71.1713 244.227 71.6712C246.962 72.1712 249.485 73.459 251.479 75.3723C253.472 77.2856 254.847 79.7386 255.429 82.4217C256.01 85.1048 255.774 87.8978 254.748 90.4482C253.722 92.9986 251.954 95.1922 249.666 96.752C247.378 98.3119 244.672 99.1682 241.891 99.2129C238.15 99.258 234.544 97.8381 231.862 95.2644C229.18 92.6906 227.642 89.173 227.585 85.4825ZM248.398 85.1485C248.37 83.8361 247.948 82.5614 247.187 81.4851C246.425 80.4088 245.357 79.5792 244.118 79.101C242.879 78.6229 241.524 78.5175 240.224 78.7983C238.924 79.079 237.738 79.7333 236.815 80.6786C235.892 81.6239 235.273 82.8177 235.037 84.1095C234.801 85.4013 234.958 86.7332 235.488 87.937C236.019 89.1408 236.899 90.1626 238.018 90.8734C239.136 91.5843 240.443 91.9523 241.773 91.9311C243.563 91.8965 245.266 91.163 246.508 89.8914C247.749 88.6198 248.429 86.914 248.398 85.1485Z" fill="#455A64"/>
<path d="M227.585 85.4825C227.525 81.7937 228.949 78.2317 231.545 75.5766C234.142 72.9216 237.699 71.3898 241.438 71.3168L241.556 78.5986C239.762 78.627 238.053 79.3573 236.804 80.6289C235.556 81.9006 234.871 83.6093 234.9 85.3793C234.928 87.1493 235.669 88.8355 236.958 90.067C238.247 91.2985 239.979 91.9745 241.773 91.9461L241.891 99.2279C238.147 99.274 234.537 97.8524 231.855 95.2752C229.173 92.698 227.637 89.176 227.585 85.4825Z" fill="#071D94"/>
<path d="M240.175 70.1907C242.315 70.1398 244.444 70.5106 246.436 71.2815C248.429 72.0525 250.246 73.208 251.78 74.6803C253.314 76.1527 254.535 77.9124 255.372 79.8562C256.208 81.8 256.642 83.8889 256.65 86.0005L248.055 86.1394C247.983 81.8266 244.65 79.1166 240.32 79.1992L240.175 70.1907Z" fill="#263238"/>
<path d="M119.669 33.2057C119.774 27.5245 115.191 22.8375 109.432 22.737C103.673 22.6364 98.9197 27.1604 98.8145 32.8416C98.7093 38.5228 103.293 43.2097 109.051 43.3103C114.81 43.4108 119.564 38.8868 119.669 33.2057Z" fill="#071D94"/>
<g opacity="0.1">
<path d="M111.203 22.9265C109.859 22.6716 108.476 22.6806 107.135 22.9529C105.793 23.2253 104.52 23.7557 103.386 24.5138C102.253 25.272 101.282 26.243 100.529 27.3714C99.7756 28.4998 99.2553 29.7635 98.9976 31.0904C98.9976 31.0904 106.132 32.7682 108.437 30.2383C110.743 27.7085 111.203 22.9265 111.203 22.9265Z" fill="white"/>
</g>
<path d="M116.891 34.3109C116.594 35.8286 115.847 37.2254 114.746 38.3246C113.644 39.4239 112.236 40.1762 110.701 40.4866C109.166 40.797 107.572 40.6516 106.121 40.0686C104.67 39.4856 103.426 38.4913 102.548 37.2113C101.669 35.9313 101.195 34.4231 101.185 32.8772C101.175 31.3314 101.629 29.8173 102.491 28.5264C103.353 27.2354 104.584 26.2255 106.028 25.6243C107.471 25.0231 109.063 24.8575 110.602 25.1485C111.625 25.342 112.6 25.7326 113.47 26.298C114.34 26.8633 115.088 27.5923 115.672 28.4433C116.256 29.2943 116.665 30.2506 116.874 31.2574C117.083 32.2642 117.089 33.3018 116.891 34.3109Z" fill="#071D94"/>
<g opacity="0.2">
<path d="M116.891 34.3109C116.594 35.8286 115.847 37.2254 114.746 38.3246C113.644 39.4239 112.236 40.1762 110.701 40.4866C109.166 40.797 107.572 40.6516 106.121 40.0686C104.67 39.4856 103.426 38.4913 102.548 37.2113C101.669 35.9313 101.195 34.4231 101.185 32.8772C101.175 31.3314 101.629 29.8173 102.491 28.5264C103.353 27.2354 104.584 26.2255 106.028 25.6243C107.471 25.0231 109.063 24.8575 110.602 25.1485C111.625 25.342 112.6 25.7326 113.47 26.298C114.34 26.8633 115.088 27.5923 115.672 28.4433C116.256 29.2943 116.665 30.2506 116.874 31.2574C117.083 32.2642 117.089 33.3018 116.891 34.3109Z" fill="black"/>
</g>
<path d="M117.051 34.6712C116.76 36.1704 116.025 37.5507 114.939 38.6376C113.852 39.7245 112.464 40.4692 110.948 40.7775C109.433 41.0858 107.859 40.9439 106.425 40.3696C104.992 39.7954 103.763 38.8146 102.894 37.5514C102.026 36.2882 101.557 34.7993 101.546 33.2729C101.535 31.7465 101.983 30.2513 102.834 28.9763C103.685 27.7013 104.9 26.7039 106.325 26.1101C107.75 25.5162 109.322 25.3528 110.842 25.6403C112.879 26.0258 114.678 27.1937 115.842 28.8873C117.007 30.5809 117.442 32.6614 117.051 34.6712Z" fill="#071D94"/>
<g opacity="0.2">
<path d="M117.051 34.6712C116.76 36.1704 116.025 37.5507 114.939 38.6376C113.852 39.7245 112.464 40.4692 110.948 40.7775C109.433 41.0858 107.859 40.9439 106.425 40.3696C104.992 39.7954 103.763 38.8146 102.894 37.5514C102.026 36.2882 101.557 34.7993 101.546 33.2729C101.535 31.7465 101.983 30.2513 102.834 28.9763C103.685 27.7013 104.9 26.7039 106.325 26.1101C107.75 25.5162 109.322 25.3528 110.842 25.6403C112.879 26.0258 114.678 27.1937 115.842 28.8873C117.007 30.5809 117.442 32.6614 117.051 34.6712Z" fill="white"/>
</g>
<path d="M109.803 32.6218L110.184 30.6812C110.533 30.7906 110.866 30.9473 111.173 31.1467C111.328 31.266 111.472 31.3992 111.603 31.5445L111.641 31.4882L112.082 30.8464L112.181 30.7L111.903 30.2721L111.721 30.3134C111.322 30.0016 110.864 29.7719 110.374 29.6378L110.583 28.5718L110.298 28.2415L110.244 28.508L109.784 28.4216L109.579 29.5101C108.034 29.3675 107.147 30.0844 106.957 31.0641C106.695 32.4003 107.787 32.9671 108.818 33.4288L108.437 35.3506C107.741 35.1606 107.114 34.7792 106.63 34.2508L106.006 35.1404C106.605 35.7678 107.382 36.2022 108.235 36.3866L108.079 37.1936L107.699 37.126L108.026 37.4526L108.825 37.6065L109.034 36.5292C110.594 36.6643 111.489 35.9587 111.698 34.979C111.945 33.6428 110.834 33.0835 109.803 32.6218ZM109.042 32.269C108.509 31.9987 108.133 31.7059 108.224 31.2443C108.315 30.7826 108.665 30.5311 109.366 30.5574L109.042 32.269ZM109.251 35.482L109.579 33.7816C110.13 34.0556 110.515 34.3597 110.423 34.8289C110.34 35.2418 109.978 35.512 109.248 35.482H109.251Z" fill="#071D94"/>
<g opacity="0.3">
<path d="M109.803 32.6218L110.184 30.6812C110.533 30.7906 110.866 30.9473 111.173 31.1467C111.328 31.266 111.472 31.3992 111.603 31.5445L111.641 31.4882L112.082 30.8464L112.181 30.7L111.903 30.2721L111.721 30.3134C111.322 30.0016 110.864 29.7719 110.374 29.6378L110.583 28.5718L110.298 28.2415L110.244 28.508L109.784 28.4216L109.579 29.5101C108.034 29.3675 107.147 30.0844 106.957 31.0641C106.695 32.4003 107.787 32.9671 108.818 33.4288L108.437 35.3506C107.741 35.1606 107.114 34.7792 106.63 34.2508L106.006 35.1404C106.605 35.7678 107.382 36.2022 108.235 36.3866L108.079 37.1936L107.699 37.126L108.026 37.4526L108.825 37.6065L109.034 36.5292C110.594 36.6643 111.489 35.9587 111.698 34.979C111.945 33.6428 110.834 33.0835 109.803 32.6218ZM109.042 32.269C108.509 31.9987 108.133 31.7059 108.224 31.2443C108.315 30.7826 108.665 30.5311 109.366 30.5574L109.042 32.269ZM109.251 35.482L109.579 33.7816C110.13 34.0556 110.515 34.3597 110.423 34.8289C110.34 35.2418 109.978 35.512 109.248 35.482H109.251Z" fill="black"/>
</g>
<path d="M108.764 36.2027L108.555 37.2799L107.756 37.1298L107.965 36.0638C107.11 35.878 106.332 35.4424 105.732 34.8139L106.36 33.9243C106.843 34.4538 107.47 34.8354 108.167 35.024L108.547 33.1023C107.516 32.6406 106.424 32.0738 106.683 30.7375C106.873 29.7579 107.76 29.0409 109.308 29.1836L109.522 28.0988L110.317 28.249L110.111 29.315C110.804 29.4783 111.444 29.8085 111.976 30.2759L111.378 31.1542C110.949 30.7837 110.446 30.5062 109.902 30.3397L109.522 32.2802C110.553 32.7419 111.664 33.3012 111.405 34.6374C111.218 35.6321 110.34 36.3378 108.764 36.2027ZM108.764 31.9424L109.099 30.2308C108.384 30.2045 108.026 30.4973 107.958 30.9177C107.889 31.3381 108.232 31.6722 108.764 31.9424ZM110.146 34.5023C110.237 34.0331 109.853 33.7291 109.297 33.4551L108.966 35.1554C109.7 35.1855 110.066 34.9077 110.146 34.5023Z" fill="#071D94"/>
<path d="M99.5948 36.1163C99.5948 36.1163 99.5948 36.09 99.5643 36.03L99.4845 35.7748C99.4407 35.6419 99.4051 35.5065 99.3779 35.3694C99.3299 35.1889 99.2918 35.0059 99.2638 34.8214C99.2448 34.72 99.2295 34.6112 99.2105 34.5023C99.1915 34.3935 99.1839 34.2733 99.1725 34.1532C99.1382 33.9093 99.1306 33.6503 99.1192 33.3763C99.1085 32.7824 99.1466 32.1886 99.2333 31.6008C99.3276 31.014 99.4688 30.4354 99.6557 29.8705C99.7508 29.6152 99.8345 29.3675 99.9372 29.146C99.9867 29.0334 100.029 28.9246 100.082 28.8232L100.226 28.5305C100.314 28.3428 100.417 28.1851 100.497 28.0425C100.576 27.8999 100.656 27.7798 100.725 27.6859L100.873 27.4645C100.891 27.4379 100.912 27.4128 100.934 27.3894C100.921 27.4178 100.905 27.4454 100.888 27.472L100.748 27.7009C100.687 27.7985 100.614 27.9187 100.535 28.0763C100.455 28.2339 100.36 28.3803 100.276 28.568L100.135 28.857C100.086 28.9584 100.044 29.071 99.9981 29.1798C99.8992 29.4013 99.8155 29.649 99.7242 29.9043C99.3499 31.0277 99.1699 32.2052 99.1915 33.3875C99.1915 33.6578 99.1915 33.9168 99.2333 34.1382C99.2333 34.2583 99.2524 34.3747 99.2714 34.4873C99.2904 34.5999 99.3018 34.705 99.317 34.8063C99.3437 35.009 99.3855 35.1817 99.4198 35.3506C99.4438 35.4886 99.4755 35.6252 99.5149 35.7597C99.5415 35.8648 99.5605 35.9512 99.5796 36.0187C99.5885 36.0506 99.5936 36.0833 99.5948 36.1163Z" fill="white"/>
<path d="M107.185 31.6684C107.105 31.596 107.042 31.506 107.003 31.4056C106.898 31.1696 106.871 30.9068 106.927 30.6549C106.985 30.3977 107.128 30.1668 107.334 29.9981C107.411 29.9206 107.509 29.8649 107.615 29.8367C107.615 29.8367 107.513 29.9042 107.372 30.0356C107.185 30.2061 107.053 30.4265 106.991 30.67C106.931 30.9194 106.948 31.181 107.041 31.4207C107.121 31.5633 107.197 31.6609 107.185 31.6684Z" fill="white"/>
<path d="M109.495 29.056C109.48 28.9477 109.489 28.8376 109.522 28.7332C109.556 28.5605 109.598 28.4216 109.62 28.4254C109.637 28.5333 109.629 28.6435 109.598 28.7482C109.579 28.9208 109.518 29.0597 109.495 29.056Z" fill="white"/>
<path d="M111.344 25.0923C111.259 25.082 111.174 25.0632 111.093 25.036C111.017 25.0134 110.918 24.9872 110.804 24.9647C110.69 24.9421 110.564 24.9084 110.423 24.8896C110.283 24.8708 110.123 24.837 109.952 24.8183C109.78 24.7995 109.579 24.7732 109.4 24.7732C108.982 24.7525 108.564 24.7613 108.148 24.7995C107.731 24.8424 107.318 24.9152 106.911 25.0172C106.725 25.0698 106.55 25.1148 106.386 25.1711C106.223 25.2274 106.074 25.2762 105.937 25.3287C105.8 25.3813 105.683 25.4376 105.576 25.4826C105.483 25.5182 105.393 25.5596 105.306 25.6065C105.232 25.648 105.154 25.6819 105.074 25.7078C105.142 25.6595 105.215 25.6168 105.291 25.5802C105.363 25.5389 105.45 25.4901 105.557 25.4413C105.663 25.3926 105.778 25.3325 105.918 25.2799C106.059 25.2274 106.2 25.1636 106.367 25.111C106.535 25.0585 106.706 25.0022 106.892 24.9496C107.302 24.8429 107.719 24.7676 108.14 24.7244C108.56 24.6874 108.983 24.6799 109.404 24.7019C109.598 24.7019 109.784 24.7319 109.955 24.7582C110.127 24.7845 110.286 24.8108 110.431 24.837C110.575 24.8633 110.701 24.9008 110.811 24.9271C110.922 24.9534 111.021 24.9834 111.101 25.0097L111.344 25.0923Z" fill="white"/>
<path d="M108.624 42.8464H108.43C108.255 42.8552 108.08 42.8552 107.905 42.8464C107.328 42.8096 106.758 42.7089 106.204 42.5461C105.649 42.3807 105.115 42.1527 104.613 41.8667C104.419 41.7578 104.271 41.664 104.168 41.5927C104.115 41.5572 104.064 41.5183 104.016 41.4763C104.078 41.4974 104.135 41.5278 104.187 41.5664C104.29 41.6302 104.446 41.7165 104.64 41.8216C105.145 42.0891 105.675 42.3066 106.223 42.471C106.772 42.6328 107.337 42.7397 107.908 42.79C108.129 42.8126 108.308 42.8201 108.43 42.8238C108.495 42.8235 108.56 42.831 108.624 42.8464Z" fill="white"/>
<path d="M111.679 87.6859C112.018 88.8927 111.986 90.1715 111.589 91.3607C111.191 92.5499 110.445 93.5961 109.445 94.367C108.444 95.1379 107.235 95.5989 105.969 95.6917C104.703 95.7845 103.438 95.5049 102.333 94.8883C101.228 94.2717 100.333 93.3458 99.7617 92.2276C99.1902 91.1094 98.9677 89.8491 99.1222 88.6062C99.2767 87.3632 99.8013 86.1934 100.63 85.2445C101.458 84.2957 102.553 83.6105 103.776 83.2755C104.589 83.053 105.438 82.9906 106.274 83.0918C107.111 83.1931 107.92 83.456 108.654 83.8655C109.388 84.2751 110.032 84.8233 110.551 85.4788C111.071 86.1343 111.454 86.8843 111.679 87.6859Z" fill="#071D94"/>
<g opacity="0.1">
<path d="M103.776 83.2755C102.964 83.4976 102.204 83.8755 101.539 84.3875C100.875 84.8996 100.319 85.5358 99.9038 86.2598C99.4886 86.9837 99.2221 87.7813 99.1195 88.6069C99.0169 89.4325 99.0801 90.27 99.3057 91.0715C99.3057 91.0715 103.708 90.0731 104.252 88.0687C104.796 86.0643 103.776 83.2755 103.776 83.2755Z" fill="white"/>
</g>
<path d="M110.069 88.0237C110.327 88.9416 110.303 89.9142 110 90.8187C109.698 91.7231 109.13 92.5187 108.369 93.1048C107.608 93.691 106.688 94.0413 105.725 94.1116C104.762 94.1819 103.8 93.9689 102.96 93.4997C102.12 93.0304 101.439 92.3259 101.005 91.4753C100.571 90.6246 100.402 89.666 100.52 88.7207C100.638 87.7754 101.037 86.8858 101.668 86.1644C102.298 85.4431 103.131 84.9223 104.062 84.668C104.679 84.4992 105.325 84.452 105.961 84.5293C106.598 84.6065 107.212 84.8067 107.77 85.1183C108.328 85.4299 108.818 85.8469 109.213 86.3454C109.607 86.8439 109.898 87.4142 110.069 88.0237Z" fill="#071D94"/>
<g opacity="0.2">
<path d="M110.069 88.0237C110.327 88.9416 110.303 89.9142 110 90.8187C109.698 91.7231 109.13 92.5187 108.369 93.1048C107.608 93.691 106.688 94.0413 105.725 94.1116C104.762 94.1819 103.8 93.9689 102.96 93.4997C102.12 93.0304 101.439 92.3259 101.005 91.4753C100.571 90.6246 100.402 89.666 100.52 88.7207C100.638 87.7754 101.037 86.8858 101.668 86.1644C102.298 85.4431 103.131 84.9223 104.062 84.668C104.679 84.4992 105.325 84.452 105.961 84.5293C106.598 84.6065 107.212 84.8067 107.77 85.1183C108.328 85.4299 108.818 85.8469 109.213 86.3454C109.607 86.8439 109.898 87.4142 110.069 88.0237Z" fill="black"/>
</g>
<path d="M110.256 88.1775C110.511 89.0833 110.489 90.0435 110.191 90.9365C109.893 91.8296 109.333 92.6153 108.582 93.1944C107.831 93.7735 106.923 94.1199 105.973 94.1897C105.023 94.2595 104.073 94.0497 103.243 93.5867C102.414 93.1237 101.742 92.4283 101.313 91.5887C100.885 90.749 100.718 89.8028 100.835 88.8697C100.951 87.9366 101.346 87.0585 101.968 86.3467C102.591 85.6348 103.413 85.1212 104.332 84.8707C105.562 84.5353 106.877 84.6951 107.987 85.3151C109.098 85.9351 109.914 86.9646 110.256 88.1775Z" fill="#071D94"/>
<g opacity="0.2">
<path d="M110.256 88.1775C110.511 89.0833 110.489 90.0435 110.191 90.9365C109.893 91.8296 109.333 92.6153 108.582 93.1944C107.831 93.7735 106.923 94.1199 105.973 94.1897C105.023 94.2595 104.073 94.0497 103.243 93.5867C102.414 93.1237 101.742 92.4283 101.313 91.5887C100.885 90.749 100.718 89.8028 100.835 88.8697C100.951 87.9366 101.346 87.0585 101.968 86.3467C102.591 85.6348 103.413 85.1212 104.332 84.8707C105.562 84.5353 106.877 84.6951 107.987 85.3151C109.098 85.9351 109.914 86.9646 110.256 88.1775Z" fill="white"/>
</g>
<path d="M105.69 88.9996L105.359 87.8285C105.584 87.7983 105.812 87.7983 106.036 87.8285C106.155 87.8523 106.271 87.8875 106.382 87.9336V87.8923L106.447 87.4193V87.3105L106.177 87.1491L106.086 87.2242C105.78 87.1602 105.463 87.1602 105.157 87.2242L104.979 86.5823L104.727 86.4734L104.773 86.6348L104.495 86.7137L104.678 87.3668C103.788 87.7046 103.495 88.3427 103.662 88.932C103.89 89.739 104.647 89.7578 105.344 89.7353L105.671 90.8951C105.235 90.9782 104.783 90.9365 104.37 90.775L104.271 91.4356C104.775 91.6206 105.324 91.6507 105.846 91.5219L105.983 92.0099L105.755 92.0737L106.029 92.1675L106.508 92.0324L106.325 91.383C107.223 91.0377 107.52 90.4071 107.357 89.8178C107.155 88.9883 106.386 88.977 105.69 88.9996ZM105.173 88.9996C104.792 88.9996 104.514 88.9358 104.438 88.658C104.362 88.3802 104.484 88.1438 104.883 87.9673L105.173 88.9996ZM106.177 90.7187L105.888 89.709C106.268 89.709 106.565 89.7765 106.649 90.0581C106.733 90.3396 106.588 90.5498 106.177 90.7299V90.7187Z" fill="#071D94"/>
<g opacity="0.3">
<path d="M105.69 88.9996L105.359 87.8285C105.584 87.7983 105.812 87.7983 106.036 87.8285C106.155 87.8523 106.271 87.8875 106.382 87.9336V87.8923L106.447 87.4193V87.3105L106.177 87.1491L106.086 87.2242C105.78 87.1602 105.463 87.1602 105.157 87.2242L104.979 86.5823L104.727 86.4734L104.773 86.6348L104.495 86.7137L104.678 87.3668C103.788 87.7046 103.495 88.3427 103.662 88.932C103.89 89.739 104.647 89.7578 105.344 89.7353L105.671 90.8951C105.235 90.9782 104.783 90.9365 104.37 90.775L104.271 91.4356C104.775 91.6206 105.324 91.6507 105.846 91.5219L105.983 92.0099L105.755 92.0737L106.029 92.1675L106.508 92.0324L106.325 91.383C107.223 91.0377 107.52 90.4071 107.357 89.8178C107.155 88.9883 106.386 88.977 105.69 88.9996ZM105.173 88.9996C104.792 88.9996 104.514 88.9358 104.438 88.658C104.362 88.3802 104.484 88.1438 104.883 87.9673L105.173 88.9996ZM106.177 90.7187L105.888 89.709C106.268 89.709 106.565 89.7765 106.649 90.0581C106.733 90.3396 106.588 90.5498 106.177 90.7299V90.7187Z" fill="black"/>
</g>
<path d="M106.109 91.2592L106.291 91.9086L105.812 92.0399L105.629 91.3943C105.107 91.5232 104.558 91.4931 104.054 91.308L104.153 90.6511C104.567 90.8096 105.018 90.8499 105.454 90.7675L105.127 89.6077C104.431 89.6302 103.67 89.6077 103.445 88.8044C103.278 88.2151 103.567 87.577 104.461 87.2392L104.279 86.5861L104.758 86.4547L104.941 87.0966C105.367 86.9993 105.812 87.0084 106.234 87.1228L106.158 87.776C105.818 87.6883 105.463 87.6704 105.116 87.7234L105.447 88.8945C106.143 88.8757 106.911 88.8945 107.14 89.6902C107.296 90.2795 107.007 90.9101 106.109 91.2592ZM104.929 88.9058L104.64 87.8735C104.26 88.05 104.123 88.3089 104.195 88.5642C104.267 88.8194 104.56 88.902 104.929 88.9058ZM106.402 89.9455C106.322 89.664 106.021 89.6002 105.641 89.5964L105.93 90.6249C106.345 90.4597 106.47 90.197 106.402 89.9455Z" fill="#071D94"/>
<path d="M101.029 93.6802C101.029 93.6802 101.029 93.6802 100.987 93.6427L100.873 93.5226C100.812 93.4604 100.753 93.3953 100.698 93.3274C100.637 93.2486 100.558 93.1622 100.485 93.0571L100.367 92.8957L100.249 92.7118C100.166 92.5879 100.09 92.4453 100.006 92.2989C99.6585 91.6505 99.4305 90.9464 99.3324 90.2195C99.3133 90.0506 99.2905 89.8929 99.2867 89.7428C99.2867 89.6677 99.2867 89.5964 99.2867 89.5288V89.3336C99.2804 89.2199 99.2804 89.1058 99.2867 88.9921C99.2867 88.8907 99.2867 88.8044 99.3095 88.7331L99.3324 88.5717V88.5154C99.3324 88.5154 99.3324 88.5154 99.3324 88.5717C99.3324 88.628 99.3324 88.6693 99.3324 88.7368C99.3275 88.8218 99.3275 88.9071 99.3324 88.9921C99.3324 89.0934 99.3324 89.2098 99.3324 89.3336C99.3324 89.3975 99.3324 89.465 99.3324 89.5326C99.3324 89.6001 99.3324 89.6752 99.3324 89.7503C99.3324 89.8967 99.3628 90.0543 99.3818 90.2195C99.4371 90.5792 99.5198 90.9343 99.6291 91.2817C99.7439 91.6259 99.8851 91.9609 100.051 92.2839C100.135 92.434 100.207 92.5729 100.291 92.7005C100.329 92.7606 100.367 92.8244 100.405 92.8807L100.519 93.0459C100.592 93.151 100.668 93.2373 100.729 93.3199C100.79 93.4025 100.847 93.4663 100.892 93.5188C100.938 93.5714 100.972 93.6126 101.003 93.6427L101.029 93.6802Z" fill="white"/>
<path d="M103.982 89.1798C103.916 89.1644 103.856 89.132 103.807 89.0859C103.681 88.9805 103.592 88.8387 103.552 88.6805C103.515 88.5222 103.531 88.3562 103.597 88.2076C103.619 88.1452 103.657 88.0895 103.708 88.0462C103.708 88.0462 103.67 88.11 103.628 88.2226C103.574 88.3654 103.563 88.5207 103.597 88.6693C103.64 88.8125 103.72 88.942 103.83 89.0446C103.917 89.1422 103.986 89.1723 103.982 89.1798Z" fill="white"/>
<path d="M104.533 87.1182C104.496 87.0611 104.47 86.9975 104.457 86.931C104.432 86.8692 104.422 86.8026 104.427 86.7362C104.465 86.7913 104.491 86.8539 104.503 86.9197C104.528 86.9828 104.539 87.0506 104.533 87.1182Z" fill="white"/>
<path d="M104.454 84.4315C104.404 84.4497 104.353 84.4623 104.301 84.4691L104.123 84.5066L103.887 84.5704L103.609 84.6567C103.506 84.6905 103.403 84.7356 103.293 84.7806C103.057 84.8827 102.828 85.0006 102.608 85.1334C102.391 85.2693 102.184 85.4198 101.988 85.5838C101.901 85.6627 101.813 85.734 101.741 85.8091C101.668 85.8841 101.596 85.9554 101.535 86.0193C101.474 86.0831 101.425 86.1469 101.379 86.1994L101.265 86.3421C101.204 86.4209 101.166 86.4622 101.166 86.4622C101.189 86.4154 101.217 86.3714 101.25 86.3308C101.283 86.2801 101.318 86.2313 101.357 86.1844C101.402 86.1281 101.452 86.0643 101.512 85.9967C101.573 85.9292 101.638 85.8579 101.714 85.7828C101.79 85.7077 101.87 85.6326 101.958 85.5501C102.155 85.3826 102.365 85.2296 102.585 85.0921C102.807 84.9585 103.039 84.8405 103.278 84.7393C103.388 84.6943 103.495 84.653 103.594 84.6229C103.687 84.5894 103.783 84.5606 103.879 84.5366C103.967 84.5103 104.047 84.4991 104.115 84.4841C104.175 84.4694 104.236 84.4581 104.298 84.4503L104.454 84.4315Z" fill="white"/>
<path d="M107.87 94.9639L107.771 95.024C107.703 95.0578 107.604 95.1066 107.478 95.1591C107.15 95.2952 106.806 95.3934 106.455 95.4519C106.103 95.5104 105.746 95.5293 105.389 95.5082L105.07 95.4744L104.952 95.4519C104.991 95.4458 105.031 95.4458 105.07 95.4519C105.146 95.4519 105.256 95.4519 105.393 95.4519C105.746 95.4647 106.099 95.442 106.447 95.3843C106.794 95.3243 107.134 95.2313 107.463 95.1066C107.592 95.0578 107.691 95.0127 107.76 94.9827C107.796 94.9727 107.833 94.9664 107.87 94.9639Z" fill="white"/>
<path d="M170.239 78.9627C170.467 79.7815 170.443 80.6486 170.172 81.4544C169.9 82.2601 169.393 82.9684 168.713 83.4896C168.034 84.0108 167.213 84.3216 166.354 84.3826C165.496 84.4436 164.638 84.2522 163.89 83.8325C163.142 83.4128 162.536 82.7837 162.151 82.0247C161.765 81.2656 161.616 80.4108 161.722 79.5682C161.829 78.7256 162.186 77.9331 162.749 77.2908C163.312 76.6486 164.056 76.1854 164.885 75.9599C165.437 75.81 166.013 75.7689 166.58 75.8387C167.148 75.9085 167.696 76.088 168.193 76.3669C168.69 76.6457 169.127 77.0185 169.478 77.4639C169.829 77.9093 170.087 78.4186 170.239 78.9627Z" fill="#071D94"/>
<g opacity="0.1">
<path d="M164.885 75.9711C164.334 76.1205 163.817 76.3758 163.365 76.7223C162.913 77.0689 162.535 77.5 162.253 77.9909C161.97 78.4818 161.788 79.0228 161.717 79.5831C161.647 80.1434 161.689 80.7119 161.842 81.2561C161.842 81.2561 164.825 80.5804 165.205 79.2142C165.586 77.8479 164.885 75.9711 164.885 75.9711Z" fill="white"/>
</g>
<path d="M169.151 79.1992C169.326 79.8216 169.311 80.4815 169.106 81.0953C168.902 81.7091 168.518 82.2493 168.002 82.6475C167.486 83.0457 166.862 83.2839 166.209 83.3321C165.556 83.3803 164.903 83.2363 164.333 82.9183C163.762 82.6003 163.301 82.1226 163.006 81.5456C162.711 80.9686 162.596 80.3183 162.676 79.677C162.756 79.0357 163.027 78.4323 163.455 77.943C163.883 77.4537 164.448 77.1005 165.079 76.9283C165.924 76.6987 166.827 76.8088 167.59 77.2344C168.353 77.66 168.914 78.3665 169.151 79.1992Z" fill="#071D94"/>
<g opacity="0.2">
<path d="M169.151 79.1992C169.326 79.8216 169.311 80.4815 169.106 81.0953C168.902 81.7091 168.518 82.2493 168.002 82.6475C167.486 83.0457 166.862 83.2839 166.209 83.3321C165.556 83.3803 164.903 83.2363 164.333 82.9183C163.762 82.6003 163.301 82.1226 163.006 81.5456C162.711 80.9686 162.596 80.3183 162.676 79.677C162.756 79.0357 163.027 78.4323 163.455 77.943C163.883 77.4537 164.448 77.1005 165.079 76.9283C165.924 76.6987 166.827 76.8088 167.59 77.2344C168.353 77.66 168.914 78.3665 169.151 79.1992Z" fill="black"/>
</g>
<path d="M167.126 83.2261C168.843 82.6835 169.789 80.8705 169.239 79.1767C168.689 77.4828 166.851 76.5494 165.134 77.092C163.417 77.6345 162.471 79.4475 163.021 81.1414C163.571 82.8353 165.409 83.7686 167.126 83.2261Z" fill="#071D94"/>
<g opacity="0.2">
<path d="M167.126 83.2261C168.843 82.6835 169.789 80.8705 169.239 79.1767C168.689 77.4828 166.851 76.5494 165.134 77.092C163.417 77.6345 162.471 79.4475 163.021 81.1414C163.571 82.8353 165.409 83.7686 167.126 83.2261Z" fill="white"/>
</g>
<path d="M166.183 79.8523L165.958 79.0603C166.11 79.0396 166.263 79.0396 166.415 79.0603C166.496 79.0755 166.575 79.0981 166.651 79.1279V79.1016L166.697 78.7825V78.7075L166.514 78.5986L166.453 78.6474C166.245 78.6061 166.03 78.6061 165.821 78.6474L165.7 78.212L165.532 78.1407L165.563 78.2495L165.372 78.3021L165.498 78.745C164.893 78.974 164.695 79.4056 164.809 79.8072C164.962 80.3553 165.479 80.3665 165.951 80.3515L166.171 81.136C165.876 81.1917 165.57 81.1644 165.289 81.0572L165.22 81.5038C165.562 81.629 165.935 81.6499 166.289 81.5639L166.385 81.8904L166.229 81.9355L166.411 81.9993L166.738 81.9092L166.651 81.4513C167.26 81.2148 167.461 80.7869 167.347 80.3853C167.176 79.8448 166.651 79.8373 166.183 79.8523ZM165.833 79.8523C165.582 79.8523 165.384 79.8072 165.331 79.6196C165.277 79.4319 165.365 79.2743 165.635 79.1541L165.833 79.8523ZM166.51 81.0159L166.316 80.3215C166.571 80.3215 166.773 80.3665 166.83 80.5579C166.887 80.7494 166.788 80.9033 166.51 81.0234V81.0159Z" fill="#071D94"/>
<g opacity="0.3">
<path d="M166.183 79.8523L165.958 79.0603C166.11 79.0396 166.263 79.0396 166.415 79.0603C166.496 79.0755 166.575 79.0981 166.651 79.1279V79.1016L166.697 78.7825V78.7075L166.514 78.5986L166.453 78.6474C166.245 78.6061 166.03 78.6061 165.821 78.6474L165.7 78.212L165.532 78.1407L165.563 78.2495L165.372 78.3021L165.498 78.745C164.893 78.974 164.695 79.4056 164.809 79.8072C164.962 80.3553 165.479 80.3665 165.951 80.3515L166.171 81.136C165.876 81.1917 165.57 81.1644 165.289 81.0572L165.22 81.5038C165.562 81.629 165.935 81.6499 166.289 81.5639L166.385 81.8904L166.229 81.9355L166.411 81.9993L166.738 81.9092L166.651 81.4513C167.26 81.2148 167.461 80.7869 167.347 80.3853C167.176 79.8448 166.651 79.8373 166.183 79.8523ZM165.833 79.8523C165.582 79.8523 165.384 79.8072 165.331 79.6196C165.277 79.4319 165.365 79.2743 165.635 79.1541L165.833 79.8523ZM166.51 81.0159L166.316 80.3215C166.571 80.3215 166.773 80.3665 166.83 80.5579C166.887 80.7494 166.788 80.9033 166.51 81.0234V81.0159Z" fill="black"/>
</g>
<path d="M166.464 81.3837L166.59 81.8229L166.263 81.913L166.141 81.4776C165.787 81.5639 165.414 81.5429 165.072 81.4175L165.14 80.9708C165.419 81.0798 165.725 81.1072 166.019 81.0497L165.799 80.2652C165.327 80.2652 164.813 80.2652 164.657 79.7209C164.547 79.3193 164.741 78.8876 165.35 78.6587L165.224 78.2158L165.551 78.1257L165.673 78.5611C165.96 78.4891 166.261 78.4891 166.548 78.5611L166.499 79.004C166.268 78.9429 166.027 78.9314 165.791 78.9702L166.015 79.7622C166.487 79.7622 167.008 79.7622 167.157 80.299C167.275 80.7193 167.073 81.1473 166.464 81.3837ZM165.665 79.7885L165.467 79.0903C165.197 79.2104 165.117 79.3831 165.167 79.5558C165.216 79.7284 165.414 79.7847 165.665 79.7885ZM166.662 80.4941C166.609 80.3027 166.407 80.2577 166.149 80.2577L166.346 80.9558C166.624 80.832 166.712 80.663 166.651 80.4941H166.662Z" fill="#071D94"/>
<path d="M163.021 83.0277L162.991 83.0014L162.915 82.9189C162.88 82.8851 162.842 82.84 162.797 82.7875C162.751 82.7349 162.701 82.6749 162.652 82.6036C162.603 82.5323 162.603 82.5323 162.572 82.491L162.492 82.3671C162.435 82.2845 162.386 82.1869 162.329 82.0893C162.213 81.8684 162.115 81.6388 162.036 81.4024C161.96 81.1661 161.905 80.9237 161.872 80.678C161.872 80.5654 161.842 80.4566 161.838 80.3552C161.834 80.2539 161.838 80.2576 161.838 80.2088V80.0737C161.834 79.9962 161.834 79.9185 161.838 79.841C161.841 79.7831 161.847 79.7255 161.857 79.6683V79.5557C161.857 79.5332 161.857 79.5182 161.857 79.5182C161.858 79.5319 161.858 79.5457 161.857 79.5595V79.6683C161.857 79.7171 161.857 79.7734 161.857 79.841C161.853 79.9185 161.853 79.9962 161.857 80.0737V80.2088C161.857 80.2576 161.857 80.3064 161.857 80.3552C161.857 80.404 161.876 80.5617 161.887 80.6743C161.926 80.918 161.982 81.1589 162.055 81.3949C162.135 81.6279 162.231 81.8549 162.344 82.0743C162.397 82.1769 162.45 82.2708 162.504 82.3558L162.584 82.4797L162.66 82.5886C162.709 82.6599 162.759 82.7199 162.8 82.7762L162.915 82.9114L162.987 82.9939L163.021 83.0277Z" fill="white"/>
<path d="M165.022 79.9761C164.979 79.9621 164.938 79.9391 164.904 79.9086C164.819 79.8392 164.759 79.7443 164.733 79.6383C164.707 79.5307 164.716 79.4176 164.76 79.3155C164.777 79.2744 164.803 79.2374 164.836 79.2067C164.816 79.2445 164.798 79.2833 164.783 79.323C164.754 79.4237 164.754 79.5301 164.783 79.6308C164.81 79.7304 164.864 79.821 164.939 79.8936C164.981 79.9499 165.026 79.9724 165.022 79.9761Z" fill="white"/>
<path d="M165.4 78.5755C165.4 78.5755 165.365 78.5231 165.346 78.4519C165.33 78.4087 165.322 78.363 165.323 78.3171C165.323 78.3171 165.358 78.3695 165.377 78.4407C165.393 78.4839 165.401 78.5296 165.4 78.5755Z" fill="white"/>
<path d="M165.342 76.7556L165.239 76.7819L165.117 76.8082L164.958 76.8495C164.894 76.8655 164.832 76.8856 164.771 76.9095C164.703 76.932 164.63 76.9621 164.558 76.9921C164.398 77.0605 164.243 77.1395 164.094 77.2286C163.947 77.3221 163.806 77.4249 163.672 77.5363C163.613 77.5848 163.557 77.6362 163.504 77.6902C163.456 77.7349 163.41 77.7825 163.367 77.8329C163.325 77.8742 163.291 77.9192 163.257 77.9567L163.181 78.0506C163.16 78.0798 163.137 78.1074 163.112 78.1332L163.169 78.0431L163.245 77.9455C163.276 77.9079 163.306 77.8629 163.348 77.8179C163.39 77.7728 163.432 77.7203 163.485 77.6715C163.538 77.6227 163.592 77.5701 163.653 77.5138C163.785 77.3999 163.927 77.2958 164.075 77.2023C164.225 77.1113 164.381 77.031 164.543 76.9621L164.76 76.8832L164.954 76.8269L165.114 76.7894L165.239 76.7669L165.342 76.7556Z" fill="white"/>
<path d="M167.659 83.8911C167.639 83.9087 167.616 83.9226 167.591 83.9322C167.545 83.9585 167.477 83.9884 167.393 84.0259C166.946 84.2111 166.461 84.2919 165.977 84.2618L165.761 84.2394L165.681 84.2206H165.761C165.814 84.2206 165.886 84.2206 165.977 84.2206C166.217 84.2259 166.456 84.2096 166.693 84.1719C166.93 84.1338 167.162 84.071 167.385 83.9847L167.587 83.9023L167.659 83.8911Z" fill="white"/>
<path d="M151.359 126.82H126.301V180.049H151.359V126.82Z" fill="#071D94"/>
<g opacity="0.3">
<path d="M151.359 126.82H143.59V180.049H151.359V126.82Z" fill="black"/>
</g>
<path d="M143.59 180.049C143.533 180.049 143.483 168.266 143.483 153.736C143.483 139.207 143.533 127.421 143.59 127.421C143.648 127.421 143.698 139.203 143.698 153.736C143.698 168.27 143.652 180.049 143.59 180.049Z" fill="#263238"/>
<path d="M120.776 108.056H95.7175V180.049H120.776V108.056Z" fill="#FFBB00"/>
<g opacity="0.3">
<path d="M120.78 108.056H113.01V180.049H120.78V108.056Z" fill="black"/>
</g>
<path d="M113.004 180.049C112.942 180.049 112.896 164.115 112.896 144.462C112.896 124.808 112.95 108.852 113.004 108.852C113.057 108.852 113.111 124.786 113.111 144.446C113.111 164.107 113.069 180.049 113.004 180.049Z" fill="#263238"/>
<path d="M182.277 142.318H157.219V180.052H182.277V142.318Z" fill="#FFBB00"/>
<g opacity="0.3">
<path d="M182.277 142.318H174.508V180.052H182.277V142.318Z" fill="black"/>
</g>
<path d="M174.508 180.049C174.447 180.049 174.401 171.697 174.401 161.397C174.401 151.098 174.447 142.742 174.508 142.742C174.57 142.742 174.616 151.094 174.616 161.397C174.616 171.701 174.566 180.049 174.508 180.049Z" fill="#263238"/>
<path d="M212.521 159.461H187.463V180.049H212.521V159.461Z" fill="#071D94"/>
<g opacity="0.3">
<path d="M212.525 159.461H204.756V180.049H212.525V159.461Z" fill="black"/>
</g>
<path d="M204.756 180.049C204.695 180.049 204.649 175.492 204.649 169.873C204.649 164.254 204.695 159.693 204.756 159.693C204.818 159.693 204.864 164.25 204.864 169.873C204.864 175.496 204.814 180.049 204.756 180.049Z" fill="#263238"/>
<path d="M243.105 166.585H218.046V180.049H243.105V166.585Z" fill="#FFBB00"/>
<g opacity="0.3">
<path d="M243.104 166.585H235.335V180.049H243.104V166.585Z" fill="black"/>
</g>
<path d="M235.336 180.049C235.278 180.049 235.229 177.068 235.229 173.394C235.229 169.719 235.278 166.735 235.336 166.735C235.393 166.735 235.443 169.715 235.443 173.394C235.443 177.072 235.397 180.049 235.336 180.049Z" fill="#263238"/>
<path d="M90.1967 84.3865H65.1382V180.034H90.1967V84.3865Z" fill="#071D94"/>
<g opacity="0.3">
<path d="M90.1967 84.3865H82.4272V180.034H90.1967V84.3865Z" fill="black"/>
</g>
<path d="M82.4281 180.424C82.3706 180.424 82.3208 159.168 82.3208 132.949C82.3208 106.731 82.3706 85.4675 82.4281 85.4675C82.4855 85.4675 82.5353 106.724 82.5353 132.949C82.5353 159.175 82.4855 180.424 82.4281 180.424Z" fill="#263238"/>
<path d="M59.6137 64.9733H34.5552V180.424H59.6137V64.9733Z" fill="#FFBB00"/>
<g opacity="0.3">
<path d="M59.6137 64.9733H51.8442V180.424H59.6137V64.9733Z" fill="black"/>
</g>
<path d="M51.8451 180.424C51.7876 180.424 51.7378 154.87 51.7378 123.37C51.7378 91.871 51.7876 66.2946 51.8451 66.2946C51.9025 66.2946 51.9523 91.841 51.9523 123.37C51.9523 154.9 51.9064 180.424 51.8451 180.424Z" fill="#263238"/>
<path d="M54.4415 54.7292C61.7253 49.8642 63.6322 40.0953 58.7007 32.9097C53.7692 25.7241 43.8668 23.8429 36.583 28.7079C29.2992 33.5729 27.3923 43.3419 32.3238 50.5274C37.2553 57.713 47.1577 59.5942 54.4415 54.7292Z" fill="#071D94"/>
<path opacity="0.3" d="M54.4415 54.7292C61.7253 49.8642 63.6322 40.0953 58.7007 32.9097C53.7692 25.7241 43.8668 23.8429 36.583 28.7079C29.2992 33.5729 27.3923 43.3419 32.3238 50.5274C37.2553 57.713 47.1577 59.5942 54.4415 54.7292Z" fill="black"/>
<path d="M54.4415 52.9967C61.7253 48.1317 63.6322 38.3628 58.7007 31.1772C53.7692 23.9916 43.8668 22.1104 36.583 26.9754C29.2992 31.8404 27.3923 41.6094 32.3238 48.795C37.2553 55.9805 47.1577 57.8617 54.4415 52.9967Z" fill="#FFBB00"/>
<path d="M45.5132 50.5111C51.4053 50.5111 56.1819 45.7989 56.1819 39.9862C56.1819 34.1735 51.4053 29.4614 45.5132 29.4614C39.621 29.4614 34.8445 34.1735 34.8445 39.9862C34.8445 45.7989 39.621 50.5111 45.5132 50.5111Z" fill="white"/>
<path d="M49.2053 43.6254C51.2439 41.6143 51.2439 38.3536 49.2053 36.3425C47.1667 34.3313 43.8614 34.3313 41.8228 36.3425C39.7842 38.3536 39.7842 41.6143 41.8228 43.6254C43.8614 45.6366 47.1667 45.6366 49.2053 43.6254Z" fill="#FFBB00"/>
<path d="M58.3163 26.68L57.8826 23.3281L61.3449 19.676L61.5923 23.2944L58.3163 26.68Z" fill="#455A64"/>
<path d="M65.7395 24.015L62.2315 23.7335L58.7158 27.0704L62.2315 27.442L65.7395 24.015Z" fill="#455A64"/>
<path opacity="0.3" d="M46.2095 39.9112L58.3849 30.7376C57.9277 30.0869 57.4188 29.4731 56.8629 28.9021L46.2095 39.0929V39.9112Z" fill="black"/>
<path d="M61.9082 22.3972L56.3113 27.9825L47.4499 36.8408L45.4106 38.8789C44.7637 39.5245 45.791 40.5192 46.4188 39.8736L52.0081 34.2884L60.8771 25.4301L62.9165 23.3919C63.5595 22.7463 62.536 21.7516 61.9044 22.3972H61.9082Z" fill="#263238"/>
<path d="M45.5139 20.269C45.4565 20.269 45.4143 17.2662 45.4143 13.554C45.4143 9.84174 45.4565 6.83893 45.5139 6.83893C45.5714 6.83893 45.6135 9.84174 45.6135 13.554C45.6135 17.2662 45.5676 20.269 45.5139 20.269Z" fill="#263238"/>
<path d="M55.7977 13.2612C55.8395 13.295 54.7513 14.8039 53.3664 16.6394C51.9814 18.4748 50.821 19.9237 50.7753 19.8899C50.7296 19.8561 51.8216 18.351 53.2066 16.5117C54.5915 14.6725 55.752 13.2312 55.7977 13.2612Z" fill="#263238"/>
<path d="M35.1033 12.9534C35.1528 12.9271 36.0963 14.5261 37.215 16.523C38.3336 18.5198 39.1973 20.1639 39.1516 20.1902C39.106 20.2164 38.1586 18.6174 37.0399 16.6168C35.9213 14.6162 35.0576 12.9797 35.1033 12.9534Z" fill="#263238"/>
<path d="M205.102 54.1293L208.146 53.7802C209.857 55.4965 212.158 56.519 214.595 56.6469C217.032 56.7748 219.429 55.9987 221.315 54.4713C223.202 52.9439 224.441 50.7756 224.789 48.3927C225.136 46.0098 224.568 43.5847 223.196 41.5941C221.823 39.6035 219.745 38.1914 217.371 37.6355C214.996 37.0796 212.497 37.4201 210.364 38.59C208.231 39.7598 206.619 41.6745 205.845 43.9575C205.07 46.2406 205.189 48.7268 206.179 50.9276L205.102 54.1293Z" fill="white"/>
<path d="M205.102 54.1294C205.102 54.1294 205.102 54.0656 205.159 53.9305L205.353 53.3187C205.528 52.7631 205.787 51.9561 206.114 50.9089L206.137 50.8338L206.19 50.8939L206.118 50.9389C205.443 49.4616 205.156 47.8401 205.285 46.2245C205.369 45.1891 205.626 44.1745 206.046 43.2217C206.89 41.2636 208.363 39.6337 210.239 38.5832C212.115 37.5327 214.289 37.1199 216.426 37.4084C218.563 37.6969 220.544 38.6706 222.065 40.1797C223.586 41.6887 224.561 43.6492 224.841 45.7591C225.033 47.2582 224.875 48.7806 224.381 50.2107C223.908 51.5521 223.14 52.7737 222.132 53.7878C221.2 54.724 220.088 55.4668 218.86 55.9724C216.753 56.8345 214.407 56.9472 212.225 56.2914C210.668 55.8164 209.258 54.9632 208.123 53.8104H208.157L205.874 54.0468L205.296 54.1031C205.234 54.1063 205.172 54.1063 205.11 54.1031L205.311 54.0731L205.897 53.998L208.142 53.7128H208.161C209.071 54.6115 210.153 55.323 211.344 55.8057C212.535 56.2885 213.811 56.533 215.098 56.5249C216.386 56.5169 217.659 56.2565 218.844 55.759C220.028 55.2614 221.101 54.5365 221.999 53.6264C222.987 52.6287 223.738 51.4276 224.198 50.1094C224.676 48.7223 224.831 47.247 224.651 45.7929C224.349 43.5375 223.24 41.4629 221.524 39.9437C219.807 38.4246 217.597 37.561 215.291 37.5089C213.958 37.4815 212.633 37.7261 211.399 38.2273C210.166 38.7285 209.05 39.4755 208.123 40.4216C207.309 41.2508 206.657 42.2202 206.198 43.2818C205.78 44.2194 205.523 45.2189 205.437 46.2395C205.301 47.8361 205.57 49.4409 206.221 50.9089L206.35 51.1979L206.148 50.9539H206.224L205.41 53.3187C205.315 53.5852 205.247 53.7878 205.193 53.9342L205.102 54.1294Z" fill="#263238"/>
<path d="M210.284 47.3881L211.487 46.1194L213.96 48.1425L218.514 43.5145L219.709 44.7043L213.861 50.5148L210.284 47.3881Z" fill="#071D94"/>
<path d="M161.731 60.7468C161.175 60.1478 160.556 59.6081 159.886 59.1366C159.536 58.9486 159.162 58.8084 158.775 58.7199C158.775 58.7199 153.117 57.181 151.926 57.0759C150.735 56.9708 150.857 57.9317 151.96 58.1119C153.064 58.292 155.415 59.2379 155.415 59.2379C155.276 59.2648 155.151 59.336 155.057 59.4404C154.964 59.5449 154.907 59.6769 154.898 59.8159C154.871 59.9415 154.89 60.0724 154.952 60.1852C155.014 60.2979 155.115 60.3853 155.236 60.4315C155.08 60.6236 154.973 60.8503 154.924 61.0921C154.963 61.3278 155.057 61.5513 155.198 61.7453C155.198 61.7453 154.787 62.0756 154.917 62.4472C155.096 62.7773 155.333 63.0735 155.617 63.3217C155.617 63.3217 158.037 64.8231 158.558 64.8719C159.079 64.9207 159.699 65.0258 159.699 65.0258L160.552 65.6339L162.834 62.1018C162.504 61.6218 162.135 61.1687 161.731 60.7468Z" fill="#FFBF9D"/>
<path d="M155.415 59.2079C155.573 59.2701 155.738 59.3141 155.906 59.3393C156.07 59.3801 156.239 59.4028 156.408 59.4068C156.252 59.3423 156.089 59.2981 155.921 59.2754C155.756 59.2321 155.586 59.2094 155.415 59.2079Z" fill="#FF9A6C"/>
<path d="M155.179 60.4015C155.332 60.4686 155.491 60.5201 155.655 60.555C155.812 60.6123 155.973 60.6561 156.138 60.6861C155.996 60.5985 155.841 60.5352 155.678 60.4989C155.517 60.4422 155.349 60.4094 155.179 60.4015Z" fill="#FF9A6C"/>
<path d="M155.042 61.5351C155.208 61.619 155.38 61.6916 155.556 61.7523C155.723 61.8321 155.896 61.8997 156.073 61.9546C155.926 61.8431 155.762 61.7558 155.586 61.6961C155.414 61.6165 155.231 61.5623 155.042 61.5351Z" fill="#FF9A6C"/>
<path d="M203.702 115.766C203.702 115.766 202.694 106.652 200.532 105.631C198.371 104.61 195.366 103.954 194.548 105.32C193.537 107.048 192.861 108.948 192.554 110.92C192.227 113.101 192.413 116.434 192.413 116.434L194.879 116.164C194.879 116.164 194.757 107.076 195.506 105.736C196.256 104.396 200.053 105.47 200.453 107.088C200.852 108.705 201.796 115.984 201.796 115.984L203.702 115.766Z" fill="#455A64"/>
<path d="M212.308 128.622C212.194 124.868 211.829 116.569 211.665 112.924C211.646 112.443 211.435 111.987 211.08 111.656C210.724 111.325 210.252 111.145 209.763 111.153L187.094 111.288C186.608 111.291 186.141 111.48 185.793 111.815C185.446 112.151 185.243 112.606 185.23 113.086L184.784 128.528C184.78 128.774 184.826 129.019 184.918 129.248C185.009 129.478 185.146 129.687 185.32 129.864C185.494 130.041 185.701 130.182 185.931 130.28C186.16 130.378 186.407 130.431 186.656 130.435L210.406 130.528C210.66 130.533 210.911 130.486 211.146 130.391C211.381 130.297 211.594 130.156 211.772 129.977C211.95 129.799 212.089 129.587 212.181 129.354C212.273 129.121 212.317 128.872 212.308 128.622Z" fill="#455A64"/>
<path d="M186.816 116.952C186.816 116.952 186.816 117.008 186.816 117.117V117.616C186.816 118.063 186.816 118.712 186.816 119.546C186.816 121.235 186.843 123.674 186.862 126.677C186.862 126.869 186.862 127.053 186.862 127.252C186.848 127.458 186.894 127.664 186.995 127.845C187.1 128.03 187.263 128.177 187.459 128.265C187.659 128.345 187.876 128.378 188.091 128.359H190.686H196.393H202.709H206.053H208.192C208.343 128.366 208.495 128.358 208.644 128.333C208.798 128.296 208.941 128.227 209.064 128.129C209.186 128.03 209.285 127.907 209.352 127.766C209.408 127.648 209.44 127.52 209.447 127.39C209.447 127.255 209.447 127.139 209.447 127.015C209.447 126.771 209.447 126.527 209.447 126.283C209.447 125.795 209.428 125.311 209.417 124.831C209.394 123.87 209.374 122.921 209.356 121.985C209.314 120.109 209.272 118.311 209.234 116.584V116.502H209.15C202.637 116.896 197.051 117.001 193.098 117.02C191.119 117.02 189.552 117.02 188.475 117.02H187.238H186.816H186.927H187.25L188.471 117.053C189.548 117.08 191.116 117.106 193.094 117.11C197.051 117.11 202.64 117.035 209.158 116.652L209.071 116.577C209.109 118.303 209.147 120.109 209.185 121.978C209.202 122.911 209.221 123.86 209.242 124.823C209.242 125.304 209.253 125.788 209.276 126.276C209.276 126.52 209.276 126.764 209.276 127.008C209.308 127.239 209.282 127.475 209.2 127.695C209.143 127.813 209.06 127.917 208.956 127.999C208.853 128.081 208.732 128.138 208.603 128.167C208.467 128.192 208.329 128.201 208.192 128.194H207.762H206.053H202.709L196.389 128.216L190.682 128.243H188.091C187.895 128.265 187.696 128.239 187.512 128.167C187.339 128.088 187.195 127.956 187.102 127.792C187.013 127.63 186.972 127.447 186.984 127.263C186.984 127.071 186.984 126.888 186.984 126.696C186.938 123.693 186.9 121.276 186.877 119.594C186.877 118.754 186.847 118.093 186.839 117.65V117.143C186.816 117.016 186.816 116.952 186.816 116.952Z" fill="#263238"/>
<path d="M193.319 126.869C193.319 126.869 193.178 126.869 192.938 126.812C192.566 126.731 192.226 126.546 191.957 126.279C191.75 126.064 191.594 125.808 191.499 125.527C191.403 125.246 191.371 124.948 191.405 124.654C191.405 123.949 191.405 123.153 191.405 122.271C191.405 121.828 191.405 121.366 191.405 120.882C191.362 120.393 191.506 119.906 191.808 119.516C191.971 119.313 192.175 119.145 192.407 119.024C192.639 118.902 192.893 118.83 193.155 118.81C193.707 118.81 194.297 118.81 194.879 118.791L202.58 118.731C203.069 118.722 203.542 118.902 203.898 119.234C204.253 119.565 204.463 120.021 204.482 120.503C204.482 120.826 204.482 121.145 204.482 121.46C204.482 122.098 204.482 122.721 204.482 123.337C204.482 123.641 204.482 123.945 204.482 124.241C204.499 124.533 204.499 124.825 204.482 125.116C204.425 125.519 204.235 125.893 203.942 126.179C203.648 126.466 203.267 126.648 202.857 126.7C202.599 126.726 202.321 126.7 202.062 126.722L199.136 126.76L194.894 126.824L193.752 126.85H194.894H199.132H202.058C202.325 126.85 202.583 126.85 202.869 126.831C203.154 126.796 203.429 126.703 203.675 126.557C203.933 126.404 204.153 126.196 204.319 125.949C204.484 125.702 204.592 125.421 204.634 125.127C204.658 124.829 204.664 124.529 204.653 124.23C204.653 123.93 204.653 123.629 204.653 123.322C204.653 122.71 204.653 122.087 204.653 121.445C204.653 121.126 204.653 120.807 204.653 120.48C204.633 119.957 204.407 119.462 204.023 119.101C203.638 118.74 203.126 118.541 202.595 118.547L194.898 118.622C194.304 118.622 193.733 118.622 193.163 118.649C192.882 118.667 192.608 118.744 192.359 118.873C192.11 119.003 191.892 119.182 191.717 119.399C191.397 119.816 191.247 120.335 191.295 120.856C191.295 121.336 191.295 121.798 191.314 122.241C191.314 123.124 191.325 123.918 191.348 124.624C191.348 124.797 191.348 124.966 191.367 125.135C191.389 125.294 191.429 125.45 191.485 125.6C191.588 125.861 191.747 126.098 191.949 126.294C192.203 126.574 192.535 126.774 192.904 126.869C193.042 126.887 193.181 126.887 193.319 126.869Z" fill="#263238"/>
<g opacity="0.3">
<path d="M208.747 128.213C201.982 130.225 194.767 130.242 187.992 128.261L208.747 128.213Z" fill="black"/>
</g>
<path d="M195.837 121.115L198.653 121.09C199.033 121.086 199.339 120.78 199.335 120.404L199.334 120.265C199.33 119.89 199.019 119.589 198.639 119.592L195.823 119.617C195.443 119.621 195.138 119.928 195.141 120.303L195.142 120.442C195.146 120.817 195.457 121.118 195.837 121.115Z" fill="#E0E0E0"/>
<path d="M196.02 101.848C195.632 102.182 195.284 102.56 194.985 102.974C194.719 103.439 194.247 105.451 194.247 105.451C194.247 105.451 194.628 105.785 195.301 104.727C195.64 104.222 195.932 103.688 196.172 103.132L196.02 101.848Z" fill="#FFBF9D"/>
<path d="M199.372 97.8541L198.474 99.4155L195.993 101.889L195.061 105.556C194.958 105.943 195.004 106.354 195.19 106.709C195.241 106.823 195.328 106.919 195.438 106.983C195.716 107.095 196.503 106.701 196.503 106.701C196.503 106.701 197.074 107.399 197.683 106.986C197.683 106.986 198.565 107.433 199.056 106.986C199.056 106.986 199.615 107.422 200.03 107.152C200.445 106.881 201.636 105.166 201.636 105.166L203.234 99.5131L199.372 97.8541Z" fill="#FFBF9D"/>
<path d="M205.197 66.9401C205.691 67.2945 206.096 67.7545 206.383 68.2857C206.671 68.8168 206.832 69.4052 206.856 70.0067C206.921 71.5457 208.093 81.988 207.998 84.7956C207.903 87.6032 203.051 100.902 203.051 100.902L197.698 99.3104L202.313 84.454L201.857 75.119L205.197 66.9401Z" fill="#EBEBEB"/>
<path d="M195.807 43.9761C195.669 43.7085 195.45 43.4894 195.181 43.349C194.912 43.2086 194.606 43.1536 194.304 43.1917C193.954 42.9151 193.52 42.7612 193.072 42.7544C192.624 42.7477 192.186 42.8883 191.827 43.1541C191.564 42.994 191.265 42.9014 190.956 42.885C190.648 42.8687 190.34 42.9289 190.062 43.0603C189.787 43.1973 189.553 43.4007 189.38 43.6514C189.207 43.9022 189.101 44.1921 189.072 44.4941C188.765 44.4417 188.448 44.482 188.165 44.6099C187.881 44.7379 187.643 44.9474 187.482 45.211C187.335 45.481 187.274 45.7891 187.31 46.0937C187.345 46.3984 187.474 46.685 187.68 46.9151C187.341 47.0124 187.051 47.23 186.865 47.5259C186.68 47.8219 186.612 48.1752 186.674 48.5176C186.737 48.8601 186.927 49.1674 187.206 49.3802C187.485 49.5931 187.834 49.6964 188.186 49.6702L195.483 45.6127C195.703 45.4069 195.852 45.1387 195.91 44.8454C195.968 44.5521 195.932 44.2483 195.807 43.9761Z" fill="#263238"/>
<path d="M187.257 57.4663C187.292 55.9198 187.638 52.7369 187.973 49.8617C188.156 48.3653 188.903 46.9915 190.065 46.0132C191.227 45.0349 192.72 44.5234 194.247 44.5805H194.563C197.964 44.892 199.593 47.8873 199.182 51.2054L198.231 61.6702L191.652 67.5219L190.221 63.3931L190.45 61.2874C190.45 61.2874 187.197 60.6718 187.257 57.4663Z" fill="#FFBF9D"/>
<path d="M190.412 61.2761C191.931 61.3271 193.434 60.9509 194.745 60.1913C194.745 60.1913 193.657 62.4435 190.4 62.0681L190.412 61.2761Z" fill="#FF9A6C"/>
<path d="M188.821 52.6468C188.816 52.7664 188.858 52.8833 188.94 52.9724C189.021 53.0615 189.134 53.1157 189.255 53.1235C189.314 53.1302 189.374 53.1252 189.432 53.1088C189.489 53.0924 189.542 53.0648 189.589 53.0278C189.635 52.9907 189.674 52.9449 189.702 52.893C189.73 52.8411 189.748 52.7842 189.753 52.7256C189.758 52.6062 189.715 52.4899 189.634 52.401C189.553 52.3121 189.44 52.2576 189.32 52.2489C189.26 52.2421 189.2 52.2471 189.143 52.2636C189.086 52.28 189.032 52.3075 188.986 52.3446C188.939 52.3816 188.901 52.4274 188.873 52.4793C188.844 52.5312 188.827 52.5881 188.821 52.6468Z" fill="#263238"/>
<path d="M188.62 51.4531C188.677 51.5132 189.038 51.2692 189.54 51.288C190.043 51.3067 190.404 51.5657 190.461 51.5057C190.518 51.4456 190.434 51.3705 190.278 51.2504C190.064 51.0982 189.808 51.012 189.544 51.0027C189.282 50.9926 189.024 51.0649 188.806 51.2091C188.646 51.318 188.593 51.4231 188.62 51.4531Z" fill="#263238"/>
<path d="M193.36 52.887C193.356 53.007 193.4 53.1239 193.481 53.2129C193.563 53.3019 193.676 53.356 193.798 53.3637C193.914 53.3776 194.031 53.3461 194.123 53.2759C194.216 53.2056 194.276 53.1024 194.293 52.9884C194.299 52.8681 194.257 52.7502 194.176 52.6603C194.094 52.5704 193.981 52.5156 193.859 52.5079C193.742 52.495 193.625 52.5273 193.532 52.5981C193.439 52.6688 193.377 52.7724 193.36 52.887Z" fill="#263238"/>
<path d="M193.562 51.7121C193.619 51.7759 193.981 51.5319 194.483 51.5507C194.985 51.5695 195.347 51.8247 195.404 51.7684C195.461 51.7121 195.377 51.6333 195.221 51.5132C195.008 51.3581 194.752 51.2705 194.487 51.2617C194.225 51.2534 193.967 51.3255 193.749 51.4681C193.589 51.5807 193.536 51.6858 193.562 51.7121Z" fill="#263238"/>
<path d="M191.606 55.3005C191.343 55.2118 191.069 55.1538 190.792 55.1278C190.667 55.1278 190.545 55.0828 190.526 54.9965C190.518 54.8642 190.552 54.7328 190.625 54.6211L191.039 53.6752C191.419 52.8762 191.734 52.0492 191.983 51.2017C191.535 51.967 191.154 52.7681 190.842 53.5964C190.701 53.9267 190.571 54.242 190.442 54.546C190.358 54.6958 190.329 54.8692 190.358 55.0378C190.376 55.0825 190.404 55.1228 190.44 55.1559C190.475 55.189 190.518 55.214 190.564 55.2292C190.634 55.2503 190.707 55.2616 190.781 55.263C191.053 55.311 191.331 55.3236 191.606 55.3005Z" fill="#263238"/>
<path d="M193.075 55.6909C192.991 55.6909 192.972 56.2201 192.493 56.5842C192.014 56.9483 191.432 56.8657 191.424 56.9408C191.416 57.0158 191.549 57.0496 191.804 57.0646C192.124 57.0784 192.438 56.9829 192.695 56.7944C192.939 56.6122 193.102 56.3427 193.147 56.0437C193.167 55.826 193.113 55.6909 193.075 55.6909Z" fill="#263238"/>
<path d="M193.501 49.7791C193.547 49.9142 194.049 49.8691 194.643 49.9592C195.236 50.0493 195.7 50.222 195.784 50.1056C195.822 50.0493 195.742 49.9217 195.556 49.7828C195.304 49.6136 195.016 49.5044 194.715 49.4638C194.414 49.4176 194.106 49.442 193.817 49.5351C193.592 49.6139 193.482 49.7152 193.501 49.7791Z" fill="#263238"/>
<path d="M188.856 50.0343C188.939 50.1506 189.289 50.0343 189.708 50.0343C190.126 50.0343 190.469 50.1356 190.56 50.0343C190.598 49.978 190.56 49.8654 190.397 49.7528C190.193 49.6193 189.954 49.5481 189.71 49.5481C189.465 49.5481 189.226 49.6193 189.023 49.7528C188.871 49.8654 188.818 49.978 188.856 50.0343Z" fill="#263238"/>
<path d="M188.338 48.4203C188.338 48.4203 189.274 46.4422 190.279 46.0068C191.496 45.4813 191.964 46.7837 193.117 46.5135C194.27 46.2432 195.43 45.7328 196.564 46.6374C197.808 47.6245 197.188 48.2664 197.215 49.689C197.329 55.4619 198.356 57.1284 198.737 54.4259C198.782 54.1294 199.635 53.9229 199.802 52.6693C200.023 51.044 200.16 49.0696 199.829 47.9023C199.551 46.9151 199.007 46.2245 198.014 45.4475C196.446 44.2201 194.239 44.1188 192.737 44.2163C191.234 44.3139 188.293 45.8867 188.338 48.4203Z" fill="#263238"/>
<path d="M198.543 54.3171C198.551 54.1989 198.584 54.0837 198.639 53.9785C198.693 53.8732 198.769 53.78 198.862 53.7045C198.954 53.629 199.062 53.5729 199.177 53.5395C199.292 53.506 199.413 53.496 199.532 53.5101C200.141 53.5889 200.81 53.9492 200.727 55.1841C200.574 57.3724 198.36 56.7719 198.364 56.7118C198.368 56.6517 198.474 55.2292 198.543 54.3171Z" fill="#FFBF9D"/>
<path d="M198.904 55.9273C198.904 55.9273 198.942 55.9574 199.007 55.9911C199.096 56.036 199.2 56.0441 199.296 56.0137C199.446 55.9347 199.572 55.8176 199.661 55.6744C199.75 55.5312 199.799 55.3671 199.802 55.1991C199.82 55.011 199.795 54.8212 199.73 54.6436C199.713 54.5739 199.679 54.5093 199.631 54.4551C199.583 54.4009 199.523 54.3587 199.456 54.3321C199.412 54.3176 199.364 54.3186 199.321 54.3351C199.278 54.3515 199.242 54.3823 199.22 54.4222C199.186 54.4822 199.197 54.5273 199.182 54.531C199.167 54.5348 199.136 54.4897 199.182 54.3996C199.199 54.3471 199.232 54.3011 199.277 54.2683C199.343 54.2273 199.421 54.2125 199.498 54.227C199.588 54.252 199.671 54.2997 199.738 54.3654C199.805 54.4312 199.853 54.5128 199.878 54.6023C199.96 54.7969 199.991 55.0084 199.969 55.2179C199.968 55.4142 199.907 55.6056 199.795 55.7675C199.682 55.9294 199.523 56.0543 199.338 56.1263C199.277 56.1393 199.214 56.139 199.154 56.1254C199.093 56.1118 199.037 56.0851 198.988 56.0474C198.904 55.9724 198.897 55.9273 198.904 55.9273Z" fill="#FF9A6C"/>
<path d="M198.653 50.0718C198.367 50.2742 198.035 50.4032 197.686 50.4472C197.512 50.4675 197.336 50.4252 197.191 50.328C197.045 50.2308 196.94 50.0852 196.895 49.9179C196.895 49.764 196.918 49.5914 196.819 49.4675C196.72 49.3436 196.477 49.3586 196.286 49.3737C195.959 49.3875 195.638 49.2903 195.374 49.0984C195.111 48.9065 194.923 48.6313 194.84 48.3189C194.736 48.4245 194.596 48.488 194.447 48.497C194.298 48.506 194.15 48.4599 194.034 48.3677C193.807 48.1766 193.61 47.954 193.448 47.7071C193.363 47.5848 193.25 47.4845 193.117 47.4146C192.985 47.3447 192.837 47.3073 192.687 47.3055C192.527 47.3539 192.363 47.3841 192.196 47.3956C191.903 47.358 191.774 47.0202 191.74 46.7312C191.705 46.4422 191.682 46.1081 191.439 45.9467C191.187 45.8378 190.904 45.8205 190.64 45.8979C190.366 45.9279 190.02 45.8529 189.959 45.5901C189.95 45.5202 189.956 45.4494 189.976 45.3817C189.995 45.314 190.028 45.2509 190.073 45.196C190.267 44.9381 190.542 44.7513 190.856 44.6649C191.169 44.5786 191.503 44.5977 191.804 44.7193C191.93 44.3576 192.16 44.0404 192.467 43.8073C192.774 43.5742 193.144 43.4356 193.531 43.4087C193.917 43.3819 194.303 43.468 194.64 43.6564C194.978 43.8448 195.251 44.127 195.426 44.4678C195.676 44.2711 195.969 44.1347 196.281 44.0695C196.594 44.0043 196.917 44.0122 197.226 44.0925C197.535 44.1737 197.819 44.3264 198.056 44.5379C198.293 44.7494 198.476 45.0136 198.588 45.3086C198.865 45.2518 199.152 45.2735 199.417 45.3712C199.681 45.4688 199.913 45.6384 200.083 45.8604C200.244 46.0875 200.335 46.3552 200.347 46.6318C200.358 46.9084 200.289 47.1825 200.148 47.4218C200.351 47.5293 200.524 47.6859 200.649 47.8769C200.774 48.068 200.848 48.2872 200.863 48.5141C200.861 48.6256 200.835 48.7353 200.786 48.8358C200.736 48.9362 200.666 49.0251 200.579 49.0963C200.492 49.1675 200.391 49.2195 200.281 49.2485C200.172 49.2776 200.058 49.2832 199.947 49.2648C200.025 49.4476 200.032 49.6524 199.966 49.84C199.901 50.0277 199.768 50.185 199.593 50.282C199.411 50.3688 199.204 50.3877 199.01 50.3352C198.815 50.2828 198.646 50.1625 198.535 49.9967" fill="#263238"/>
<path d="M200.133 49.2723C200.139 49.3488 200.128 49.4256 200.101 49.4976C200.074 49.5695 200.032 49.6348 199.977 49.689C199.862 49.8247 199.699 49.912 199.52 49.933C199.406 49.9485 199.29 49.9383 199.181 49.9032C199.072 49.8681 198.972 49.809 198.889 49.7303H198.984C198.858 49.9319 198.7 50.112 198.516 50.2633C198.395 50.367 198.254 50.4461 198.101 50.496C197.905 50.5534 197.696 50.55 197.502 50.4862C197.308 50.4225 197.139 50.3014 197.017 50.1394C196.932 49.9971 196.876 49.8405 196.849 49.6777C196.837 49.6183 196.837 49.557 196.849 49.4975C196.849 49.4975 196.876 49.5576 196.91 49.6665C196.951 49.8162 197.017 49.9582 197.104 50.0869C197.184 50.1832 197.284 50.2621 197.397 50.3187C197.509 50.3752 197.632 50.4083 197.758 50.4157C197.885 50.4231 198.011 50.4047 198.129 50.3617C198.248 50.3186 198.356 50.2519 198.447 50.1657C198.621 50.0227 198.771 49.8544 198.893 49.6665L198.934 49.6064L198.988 49.659C199.058 49.7254 199.142 49.7762 199.234 49.8079C199.326 49.8396 199.423 49.8516 199.52 49.8429C199.677 49.8292 199.823 49.7598 199.931 49.6477C200.023 49.5369 200.091 49.4093 200.133 49.2723Z" fill="#455A64"/>
<path d="M193.832 56.0362C193.798 56.0362 193.79 55.8034 193.608 55.6083C193.425 55.4131 193.197 55.368 193.201 55.3343C193.205 55.3005 193.265 55.3042 193.364 55.3343C193.496 55.364 193.615 55.4351 193.703 55.5369C193.794 55.6345 193.851 55.7581 193.867 55.8898C193.874 55.9799 193.848 56.0399 193.832 56.0362Z" fill="#FF9A6C"/>
<path d="M194.045 55.4388C194.015 55.4575 193.935 55.3788 193.817 55.3227C193.699 55.2665 193.589 55.2478 193.585 55.2103C193.581 55.1728 193.722 55.1316 193.874 55.2103C194.026 55.2889 194.083 55.4238 194.045 55.4388Z" fill="#FF9A6C"/>
<path d="M189.955 43.1166C189.955 43.0978 189.715 43.2405 189.533 43.6008C189.423 43.8115 189.354 44.0407 189.331 44.2765C189.303 44.5752 189.385 44.8738 189.563 45.1172C189.748 45.3489 189.989 45.5309 190.263 45.6465C190.477 45.7432 190.697 45.826 190.921 45.8942C191.124 45.9686 191.335 46.0215 191.549 46.0519C191.366 45.9368 191.168 45.8483 190.96 45.7891C190.744 45.7099 190.534 45.6197 190.328 45.5189C190.081 45.4044 189.864 45.2363 189.693 45.0272C189.533 44.8099 189.458 44.5437 189.479 44.2765C189.493 44.0564 189.546 43.8405 189.635 43.6384C189.72 43.4521 189.827 43.2768 189.955 43.1166Z" fill="#E0E0E0"/>
<path d="M188.536 44.5579C188.536 44.5579 188.502 44.6968 188.563 44.9108C188.648 45.1892 188.809 45.4395 189.027 45.6352C189.243 45.8234 189.505 45.9528 189.788 46.0106C190.012 46.0518 190.168 46.0293 190.168 46.0106C190.168 45.9918 190.035 45.9693 189.837 45.9055C189.58 45.8183 189.343 45.6804 189.141 45.5001C188.942 45.3192 188.784 45.0993 188.677 44.8545C188.585 44.6856 188.559 44.5542 188.536 44.5579Z" fill="#E0E0E0"/>
<path d="M186.192 65.5513L182.973 90.9251C182.817 92.16 183.947 94.4046 185.172 94.7086L201.449 96.4653C202.435 96.6342 203.234 95.8872 203.352 94.9038C203.759 91.4619 204.037 84.2288 204.543 79.5144C205.094 74.3196 206.106 67.7171 204.881 66.7787C202.913 65.3594 200.828 64.1039 198.649 63.0252L198.375 60.668C198.375 60.668 191.119 61.4938 189.883 62.5448L189.308 64.8269L186.192 65.5513Z" fill="#EBEBEB"/>
<path d="M188.768 65.1047L173.834 66.4972L162.222 60.8857L159.768 65.9154L161.545 66.8275C164.406 68.6292 169.63 72.4128 171.818 73.3587C174.862 74.6874 190.176 72.9833 190.176 72.9833L188.768 65.1047Z" fill="#EBEBEB"/>
<path d="M184.533 73.5951C184.864 73.5693 185.193 73.5229 185.519 73.4562C186.396 73.2459 187.197 72.7988 187.832 72.165C188.765 71.2135 189.319 69.9622 189.392 68.6405C189.43 67.8689 189.265 67.1007 188.913 66.4109C188.757 66.0443 188.476 65.7438 188.117 65.5626C187.724 65.4174 187.302 65.3659 186.885 65.4124C183.388 65.6677 180.219 65.9755 177.928 66.1631L175.211 66.3921L174.473 66.4484C174.387 66.4576 174.301 66.4576 174.215 66.4484C174.298 66.4255 174.383 66.4104 174.47 66.4034L175.204 66.3095L177.913 66.0168C180.196 65.7915 183.365 65.4612 186.873 65.206C187.322 65.157 187.775 65.2136 188.197 65.3712C188.596 65.5724 188.91 65.9042 189.088 66.3095C189.453 67.0313 189.621 67.8349 189.575 68.6405C189.492 70.0018 188.908 71.2862 187.931 72.2513C187.273 72.8942 186.441 73.3349 185.534 73.52C185.289 73.5668 185.041 73.5931 184.792 73.5989C184.706 73.6091 184.619 73.6078 184.533 73.5951Z" fill="#263238"/>
<path d="M198.649 63.014C198.649 63.044 198.128 63.1228 197.283 63.2842C196.439 63.4456 195.278 63.7046 194 64.0124C192.721 64.3202 191.553 64.5604 190.697 64.6843C190.271 64.7481 189.936 64.7894 189.681 64.8082C189.555 64.8236 189.427 64.8236 189.301 64.8082C189.301 64.7781 189.822 64.6993 190.667 64.5379C191.511 64.3765 192.668 64.1175 193.946 63.8097C195.225 63.5019 196.397 63.2617 197.249 63.1379C197.679 63.074 198.01 63.0328 198.265 63.014C198.393 62.9985 198.522 62.9985 198.649 63.014Z" fill="#263238"/>
<path d="M205.349 69.41C205.358 69.5024 205.358 69.5953 205.349 69.6877C205.349 69.8904 205.3 70.1569 205.27 70.4872C205.193 71.2004 205.091 72.1988 204.961 73.4187C204.714 75.896 204.41 79.323 204.2 83.1141C204.094 84.9908 204.018 86.8188 203.968 88.4628C203.945 89.2848 203.926 90.0656 203.907 90.7975C203.888 91.5294 203.907 92.2126 203.847 92.8394C203.816 93.4033 203.723 93.9621 203.569 94.506C203.451 94.9191 203.262 95.309 203.009 95.6583C202.85 95.8789 202.655 96.0717 202.431 96.2288C202.352 96.2819 202.269 96.3295 202.184 96.3715C202.477 96.1641 202.735 95.9104 202.945 95.6208C203.179 95.2765 203.352 94.8958 203.458 94.4947C203.599 93.9555 203.68 93.4031 203.702 92.8469C203.736 92.2313 203.729 91.5482 203.736 90.8163C203.744 90.0843 203.759 89.3149 203.782 88.4778C203.824 86.83 203.892 85.0208 203.999 83.1216C204.212 79.3268 204.535 75.8998 204.821 73.4225C204.961 72.1876 205.091 71.1704 205.201 70.4947C205.247 70.1682 205.289 69.9017 205.315 69.7027C205.316 69.6042 205.327 69.506 205.349 69.41Z" fill="#263238"/>
<path d="M172.168 131.797L175.082 138.208C175.082 138.208 167.412 141.173 167.347 142.581L182.281 142.314L182.262 141.083L178.971 130.506L172.168 131.797Z" fill="#455A64"/>
<path d="M179.458 137.056C179.606 137.096 179.734 137.19 179.815 137.32C179.896 137.45 179.923 137.605 179.891 137.754C179.852 137.896 179.759 138.018 179.632 138.094C179.505 138.171 179.352 138.197 179.206 138.167C179.053 138.124 178.922 138.026 178.838 137.893C178.753 137.76 178.722 137.601 178.75 137.446C178.802 137.298 178.911 137.176 179.053 137.106C179.195 137.035 179.359 137.023 179.511 137.071" fill="#E0E0E0"/>
<path d="M182.281 142.314L182.262 141.083L167.925 141.834C167.925 141.834 167.263 142.13 167.347 142.585L182.281 142.314Z" fill="#263238"/>
<path d="M174.839 138.129C174.839 138.204 175.219 138.231 175.573 138.452C175.927 138.674 176.132 138.978 176.197 138.948C176.262 138.918 176.147 138.505 175.706 138.242C175.265 137.979 174.823 138.073 174.839 138.129Z" fill="#263238"/>
<path d="M173.286 138.805C173.286 138.876 173.587 138.993 173.842 139.293C174.097 139.593 174.173 139.912 174.245 139.908C174.317 139.905 174.355 139.496 174.036 139.128C173.716 138.76 173.286 138.737 173.286 138.805Z" fill="#263238"/>
<path d="M172.43 140.67C172.495 140.67 172.59 140.325 172.396 139.92C172.202 139.514 171.859 139.375 171.829 139.435C171.799 139.496 172.016 139.706 172.168 140.029C172.32 140.351 172.358 140.667 172.43 140.67Z" fill="#263238"/>
<path d="M174.294 136.466C174.329 136.53 174.675 136.425 175.074 136.447C175.474 136.47 175.809 136.589 175.835 136.526C175.862 136.462 175.558 136.215 175.074 136.196C174.591 136.177 174.26 136.41 174.294 136.466Z" fill="#263238"/>
<path d="M198.428 147.468L198.759 159.697L192.242 159.678L191.896 147.746L198.428 147.468Z" fill="#455A64"/>
<path d="M195.527 159.078C195.469 159.078 195.389 156.469 195.343 153.256C195.297 150.043 195.301 147.431 195.343 147.427C195.385 147.423 195.481 150.054 195.531 153.252C195.58 156.45 195.569 159.078 195.527 159.078Z" fill="#263238"/>
<path d="M192.143 155.865C192.143 155.865 192.185 155.763 192.303 155.602C192.471 155.376 192.661 155.166 192.87 154.975C193.175 154.693 193.52 154.456 193.893 154.269C194.554 153.934 195.306 153.816 196.04 153.934C196.773 154.052 197.449 154.398 197.968 154.923C198.166 155.126 198.333 155.358 198.463 155.609C198.517 155.698 198.555 155.796 198.573 155.898C198.365 155.585 198.129 155.29 197.869 155.016C197.205 154.398 196.32 154.063 195.407 154.085C194.495 154.133 193.628 154.488 192.949 155.091C192.417 155.531 192.143 155.887 192.143 155.865Z" fill="#263238"/>
<path d="M198.737 159.708L192.249 159.678L192.2 158.233L198.744 158.263L198.737 159.708Z" fill="#263238"/>
<path d="M198.946 95.6733L185.431 94.5059L185.207 95.9698C181.782 98.6911 171.034 105.196 165.494 110.522C165.494 110.522 163.447 113.337 164.261 115.815L172.925 135.187L181.741 133.182L176.361 116.734L192.904 109.115C196.119 107.94 199.018 103.935 199.703 101.638C200.297 99.6708 199.033 98.1919 198.946 95.6733Z" fill="#263238"/>
<path d="M187.596 111.104L191.173 152.254L200.194 152.205C200.194 152.205 200.483 139.642 200.304 131.185C200.125 122.729 201.172 105.474 201.172 105.474L187.596 111.104Z" fill="#263238"/>
<path d="M198.946 95.6733L203.283 96.1462C203.283 96.1462 203.709 104.693 203.398 105.778C203.086 106.863 200.734 111.149 200.734 111.149L187.904 114.835V105.196L198.946 95.6733Z" fill="#263238"/>
<path d="M197.801 104.426C197.775 104.507 197.739 104.584 197.694 104.655C197.59 104.875 197.472 105.088 197.34 105.294C196.873 106.06 196.291 106.753 195.613 107.347C194.604 108.221 193.485 108.963 192.284 109.554C190.944 110.248 189.415 110.882 187.84 111.607L179.739 115.27L177.274 116.359L176.6 116.648C176.524 116.686 176.443 116.716 176.361 116.738C176.431 116.691 176.507 116.651 176.585 116.618L177.243 116.299L179.686 115.173L187.764 111.464C189.343 110.74 190.872 110.109 192.208 109.426C193.402 108.847 194.517 108.124 195.529 107.272C196.205 106.69 196.794 106.018 197.279 105.275C197.626 104.723 197.785 104.415 197.801 104.426Z" fill="#455A64"/>
<path d="M170.623 115.984C170.926 115.887 171.241 115.827 171.559 115.807C172.317 115.723 173.083 115.723 173.842 115.807C174.606 115.891 175.357 116.065 176.079 116.325C176.383 116.42 176.672 116.555 176.939 116.727C176.633 116.65 176.332 116.556 176.037 116.445C175.314 116.222 174.571 116.068 173.819 115.984C173.067 115.904 172.31 115.888 171.555 115.935C171.246 115.973 170.934 115.989 170.623 115.984Z" fill="#455A64"/>
<path d="M185.108 95.9548L203.352 97.6551L203.291 96.3376L185.431 94.5059L185.108 95.9548Z" fill="#455A64"/>
<path d="M188.973 96.5028C189.027 96.3977 189.156 94.8362 189.156 94.8362L190.149 94.9376L189.909 96.8481L188.973 96.5028Z" fill="#263238"/>
<path d="M198.539 97.5087C198.592 97.4036 198.725 95.8422 198.725 95.8422L199.715 95.9435L199.479 97.8541L198.539 97.5087Z" fill="#263238"/>
</svg>
